<svg width="1380" height="52" viewBox="0 0 1380 52" fill="none" xmlns="http://www.w3.org/2000/svg">
<g opacity="0.8">
<mask id="mask0_30_451" style="mask-type:alpha" maskUnits="userSpaceOnUse" x="-1425" y="0" width="3646" height="83">
<path d="M1339.13 70.1373L1310.54 41.5023C1314.26 37.8603 1318.65 34.9626 1323.46 32.966C1328.43 30.9056 1333.75 29.8451 1339.13 29.8451C1344.5 29.8451 1349.82 30.9056 1354.79 32.966C1359.6 34.9626 1363.99 37.8603 1367.72 41.5023L1339.13 70.1373ZM1309.47 41.8535L1338.42 70.8428C1332.75 76.3851 1325.59 80.1628 1317.81 81.7122C1309.87 83.2942 1301.64 82.4823 1294.16 79.3792C1286.68 76.2761 1280.29 71.0211 1275.79 64.2788C1271.29 57.5363 1268.89 49.6093 1268.89 41.5002C1268.89 33.391 1271.29 25.464 1275.79 18.7216C1280.29 11.9792 1286.68 6.72426 1294.16 3.62118C1301.64 0.518098 1309.87 -0.2938 1317.81 1.28812C1325.59 2.83755 1332.75 6.61529 1338.42 12.1575L1309.47 41.1469L1309.12 41.5002L1309.47 41.8535ZM1444.96 41.8535L1445.31 41.5002L1444.96 41.1469L1416.01 12.1575C1421.68 6.61532 1428.84 2.83754 1436.62 1.28811C1444.56 -0.293812 1452.79 0.518085 1460.27 3.62116C1467.75 6.72424 1474.14 11.9792 1478.64 18.7216C1483.14 25.464 1485.54 33.391 1485.54 41.5002C1485.54 49.6093 1483.14 57.5363 1478.64 64.2787C1474.14 71.0211 1467.75 76.2761 1460.27 79.3792C1452.79 82.4822 1444.56 83.2941 1436.62 81.7122C1428.84 80.1628 1421.68 76.385 1416.01 70.8428L1444.96 41.8535ZM1415.3 12.8631L1443.89 41.498C1440.17 45.14 1435.78 48.0378 1430.97 50.0344C1426 52.0948 1420.68 53.1552 1415.3 53.1552C1409.93 53.1552 1404.61 52.0948 1399.64 50.0344C1394.83 48.0378 1390.44 45.14 1386.71 41.498L1415.3 12.8631Z" stroke="#487FFF"/>
<path d="M1094.27 70.1373L1065.68 41.5023C1069.41 37.8603 1073.79 34.9626 1078.61 32.966C1083.57 30.9056 1088.9 29.8451 1094.27 29.8451C1099.65 29.8451 1104.97 30.9056 1109.94 32.966C1114.75 34.9626 1119.14 37.8603 1122.86 41.5023L1094.27 70.1373ZM1064.62 41.8535L1093.56 70.8428C1087.89 76.3851 1080.74 80.1628 1072.96 81.7122C1065.02 83.2942 1056.79 82.4823 1049.31 79.3792C1041.83 76.2761 1035.43 71.0211 1030.94 64.2788C1026.44 57.5363 1024.04 49.6093 1024.04 41.5002C1024.04 33.391 1026.44 25.464 1030.94 18.7216C1035.43 11.9792 1041.83 6.72426 1049.31 3.62118C1056.79 0.518098 1065.02 -0.2938 1072.96 1.28812C1080.74 2.83755 1087.89 6.61529 1093.56 12.1575L1064.62 41.1469L1064.27 41.5002L1064.62 41.8535ZM1200.1 41.8535L1200.46 41.5002L1200.1 41.1469L1171.16 12.1575C1176.83 6.61532 1183.99 2.83754 1191.76 1.28811C1199.7 -0.293812 1207.93 0.518085 1215.41 3.62116C1222.89 6.72424 1229.29 11.9792 1233.79 18.7216C1238.28 25.464 1240.69 33.391 1240.69 41.5002C1240.69 49.6093 1238.28 57.5363 1233.79 64.2787C1229.29 71.0211 1222.89 76.2761 1215.41 79.3792C1207.93 82.4822 1199.7 83.2941 1191.76 81.7122C1183.99 80.1628 1176.83 76.385 1171.16 70.8428L1200.1 41.8535ZM1170.45 12.8631L1199.04 41.498C1195.31 45.14 1190.93 48.0378 1186.12 50.0344C1181.15 52.0948 1175.83 53.1552 1170.45 53.1552C1165.07 53.1552 1159.75 52.0948 1154.79 50.0344C1149.97 48.0378 1145.59 45.14 1141.86 41.498L1170.45 12.8631Z" stroke="#487FFF"/>
<path d="M849.418 70.1373L820.827 41.5023C824.553 37.8603 828.94 34.9626 833.753 32.966C838.719 30.9056 844.042 29.8451 849.418 29.8451C854.793 29.8451 860.116 30.9056 865.083 32.966C869.896 34.9626 874.282 37.8603 878.008 41.5023L849.418 70.1373ZM819.765 41.8535L848.709 70.8428C843.039 76.3851 835.882 80.1628 828.104 81.7122C820.164 83.2942 811.933 82.4823 804.453 79.3792C796.973 76.2761 790.58 71.0211 786.082 64.2788C781.584 57.5363 779.183 49.6093 779.183 41.5002C779.183 33.391 781.584 25.464 786.082 18.7216C790.58 11.9792 796.973 6.72426 804.453 3.62118C811.933 0.518098 820.164 -0.2938 828.104 1.28812C835.882 2.83755 843.039 6.61529 848.709 12.1575L819.765 41.1469L819.412 41.5002L819.765 41.8535ZM955.249 41.8535L955.602 41.5002L955.249 41.1469L926.305 12.1575C931.975 6.61532 939.132 2.83754 946.909 1.28811C954.85 -0.293812 963.08 0.518085 970.56 3.62116C978.04 6.72424 984.434 11.9792 988.932 18.7216C993.43 25.464 995.831 33.391 995.831 41.5002C995.831 49.6093 993.43 57.5363 988.932 64.2787C984.434 71.0211 978.04 76.2761 970.56 79.3792C963.08 82.4822 954.85 83.2941 946.909 81.7122C939.132 80.1628 931.975 76.385 926.305 70.8428L955.249 41.8535ZM925.596 12.8631L954.187 41.498C950.461 45.14 946.074 48.0378 941.261 50.0344C936.295 52.0948 930.972 53.1552 925.596 53.1552C920.22 53.1552 914.897 52.0948 909.931 50.0344C905.118 48.0378 900.731 45.14 897.005 41.498L925.596 12.8631Z" stroke="#487FFF"/>
<path d="M604.564 70.1373L575.974 41.5023C579.7 37.8603 584.086 34.9626 588.899 32.966C593.866 30.9056 599.189 29.8451 604.564 29.8451C609.94 29.8451 615.263 30.9056 620.229 32.966C625.042 34.9626 629.429 37.8603 633.155 41.5023L604.564 70.1373ZM574.911 41.8535L603.856 70.8428C598.185 76.3851 591.028 80.1628 583.251 81.7122C575.31 83.2942 567.08 82.4823 559.6 79.3792C552.12 76.2761 545.727 71.0211 541.228 64.2788C536.73 57.5363 534.329 49.6093 534.329 41.5002C534.329 33.391 536.73 25.464 541.228 18.7216C545.727 11.9792 552.12 6.72426 559.6 3.62118C567.08 0.518098 575.31 -0.2938 583.251 1.28812C591.028 2.83755 598.185 6.61529 603.856 12.1575L574.911 41.1469L574.558 41.5002L574.911 41.8535ZM710.396 41.8535L710.748 41.5002L710.396 41.1469L681.451 12.1575C687.121 6.61532 694.278 2.83754 702.056 1.28811C709.996 -0.293812 718.227 0.518085 725.707 3.62116C733.187 6.72424 739.58 11.9792 744.078 18.7216C748.576 25.464 750.977 33.391 750.977 41.5002C750.977 49.6093 748.576 57.5363 744.078 64.2787C739.58 71.0211 733.187 76.2761 725.707 79.3792C718.227 82.4822 709.996 83.2941 702.056 81.7122C694.278 80.1628 687.121 76.385 681.451 70.8428L710.396 41.8535ZM680.742 12.8631L709.333 41.498C705.607 45.14 701.22 48.0378 696.408 50.0344C691.441 52.0948 686.118 53.1552 680.742 53.1552C675.367 53.1552 670.044 52.0948 665.077 50.0344C660.265 48.0378 655.878 45.14 652.152 41.498L680.742 12.8631Z" stroke="#487FFF"/>
<path d="M359.71 70.1373L331.12 41.5023C334.846 37.8603 339.232 34.9626 344.045 32.966C349.012 30.9056 354.335 29.8451 359.71 29.8451C365.086 29.8451 370.409 30.9056 375.375 32.966C380.188 34.9626 384.575 37.8603 388.301 41.5023L359.71 70.1373ZM330.057 41.8535L359.002 70.8428C353.331 76.3851 346.174 80.1628 338.397 81.7122C330.456 83.2942 322.226 82.4823 314.746 79.3792C307.266 76.2761 300.873 71.0211 296.374 64.2788C291.876 57.5363 289.475 49.6093 289.475 41.5002C289.475 33.391 291.876 25.464 296.374 18.7216C300.873 11.9792 307.266 6.72426 314.746 3.62118C322.226 0.518098 330.456 -0.2938 338.397 1.28812C346.174 2.83755 353.331 6.61529 359.002 12.1575L330.057 41.1469L329.704 41.5002L330.057 41.8535ZM465.542 41.8535L465.894 41.5002L465.542 41.1469L436.597 12.1575C442.267 6.61532 449.424 2.83754 457.202 1.28811C465.142 -0.293812 473.373 0.518085 480.853 3.62116C488.333 6.72424 494.726 11.9792 499.224 18.7216C503.722 25.464 506.123 33.391 506.123 41.5002C506.123 49.6093 503.722 57.5363 499.224 64.2787C494.726 71.0211 488.333 76.2761 480.853 79.3792C473.373 82.4822 465.142 83.2941 457.202 81.7122C449.424 80.1628 442.267 76.385 436.597 70.8428L465.542 41.8535ZM435.888 12.8631L464.479 41.498C460.753 45.14 456.366 48.0378 451.554 50.0344C446.587 52.0948 441.264 53.1552 435.888 53.1552C430.513 53.1552 425.19 52.0948 420.223 50.0344C415.411 48.0378 411.024 45.14 407.298 41.498L435.888 12.8631Z" stroke="#487FFF"/>
<path d="M114.858 70.1373L86.267 41.5023C89.993 37.8603 94.3797 34.9626 99.1925 32.966C104.159 30.9056 109.482 29.8451 114.858 29.8451C120.233 29.8451 125.556 30.9056 130.523 32.966C135.335 34.9626 139.722 37.8603 143.448 41.5023L114.858 70.1373ZM85.2044 41.8535L114.149 70.8428C108.479 76.3851 101.322 80.1628 93.5442 81.7122C85.6037 83.2942 77.3731 82.4823 69.8932 79.3792C62.4133 76.2761 56.02 71.0211 51.5218 64.2788C47.0237 57.5363 44.6228 49.6093 44.6228 41.5002C44.6228 33.391 47.0237 25.464 51.5218 18.7216C56.02 11.9792 62.4133 6.72426 69.8932 3.62118C77.3731 0.518098 85.6037 -0.2938 93.5442 1.28812C101.322 2.83755 108.479 6.61529 114.149 12.1575L85.2044 41.1469L84.8517 41.5002L85.2044 41.8535ZM220.689 41.8535L221.042 41.5002L220.689 41.1469L191.745 12.1575C197.415 6.61532 204.572 2.83754 212.349 1.28811C220.29 -0.293812 228.52 0.518085 236 3.62116C243.48 6.72424 249.873 11.9792 254.372 18.7216C258.87 25.464 261.271 33.391 261.271 41.5002C261.271 49.6093 258.87 57.5363 254.372 64.2787C249.873 71.0211 243.48 76.2761 236 79.3792C228.52 82.4822 220.29 83.2941 212.349 81.7122C204.572 80.1628 197.415 76.385 191.744 70.8428L220.689 41.8535ZM191.036 12.8631L219.626 41.498C215.9 45.14 211.514 48.0378 206.701 50.0344C201.734 52.0948 196.411 53.1552 191.036 53.1552C185.66 53.1552 180.337 52.0948 175.371 50.0344C170.558 48.0378 166.171 45.14 162.445 41.498L191.036 12.8631Z" stroke="#487FFF"/>
<path d="M-129.997 70.1373L-158.587 41.5023C-154.861 37.8603 -150.474 34.9626 -145.662 32.966C-140.695 30.9056 -135.372 29.8451 -129.997 29.8451C-124.621 29.8451 -119.298 30.9056 -114.331 32.966C-109.519 34.9626 -105.132 37.8603 -101.406 41.5023L-129.997 70.1373ZM-159.65 41.8535L-130.705 70.8428C-136.375 76.3851 -143.532 80.1628 -151.31 81.7122C-159.25 83.2942 -167.481 82.4823 -174.961 79.3792C-182.441 76.2761 -188.834 71.0211 -193.332 64.2788C-197.83 57.5363 -200.231 49.6093 -200.231 41.5002C-200.231 33.391 -197.83 25.464 -193.332 18.7216C-188.834 11.9792 -182.441 6.72426 -174.961 3.62118C-167.481 0.518098 -159.25 -0.2938 -151.31 1.28812C-143.532 2.83755 -136.375 6.61529 -130.705 12.1575L-159.65 41.1469L-160.002 41.5002L-159.65 41.8535ZM-24.1652 41.8535L-23.8124 41.5002L-24.1652 41.1469L-53.1096 12.1575C-47.4395 6.61532 -40.2824 2.83754 -32.505 1.28811C-24.5644 -0.293812 -16.3338 0.518085 -8.85393 3.62116C-1.37403 6.72424 5.01928 11.9792 9.51742 18.7216C14.0156 25.464 16.4165 33.391 16.4165 41.5002C16.4165 49.6093 14.0156 57.5363 9.51742 64.2787C5.01928 71.0211 -1.37403 76.2761 -8.85393 79.3792C-16.3338 82.4822 -24.5644 83.2941 -32.505 81.7122C-40.2824 80.1628 -47.4395 76.385 -53.1096 70.8428L-24.1652 41.8535ZM-53.8183 12.8631L-25.2277 41.498C-28.9538 45.14 -33.3404 48.0378 -38.1532 50.0344C-43.1197 52.0948 -48.4427 53.1552 -53.8183 53.1552C-59.1939 53.1552 -64.5169 52.0948 -69.4834 50.0344C-74.2962 48.0378 -78.6829 45.14 -82.409 41.498L-53.8183 12.8631Z" stroke="#487FFF"/>
</mask>
<g mask="url(#mask0_30_451)">
<rect x="-1425" y="-63.8452" width="3645.6" height="223.461" fill="url(#paint0_linear_30_451)"/>
</g>
</g>
<defs>
<linearGradient id="paint0_linear_30_451" x1="2220.6" y1="51.0759" x2="-1425" y2="51.0769" gradientUnits="userSpaceOnUse">
<stop stop-color="white"/>
<stop offset="1" stop-color="white" stop-opacity="0"/>
</linearGradient>
</defs>
</svg>
