<svg width="1380" height="45" viewBox="0 0 1380 45" fill="none" xmlns="http://www.w3.org/2000/svg">
<g opacity="0.8">
<mask id="mask0_118_890" style="mask-type:alpha" maskUnits="userSpaceOnUse" x="-783" y="-11" width="2438" height="56">
<path d="M1393.01 35.67L1374.12 16.7565C1376.57 14.3904 1379.45 12.5048 1382.59 11.199C1385.89 9.82947 1389.43 9.12458 1393.01 9.12458C1396.58 9.12458 1400.12 9.82946 1403.42 11.199C1406.57 12.5048 1409.44 14.3904 1411.89 16.7565L1393.01 35.67ZM1373.06 17.1066L1392.3 36.3744C1388.55 39.9948 1383.84 42.4637 1378.72 43.4827C1373.44 44.5342 1367.97 43.9946 1363 41.9319C1358.03 39.8693 1353.78 36.3763 1350.79 31.8946C1347.8 27.4128 1346.2 22.1436 1346.2 16.7533C1346.2 11.363 1347.8 6.09376 1350.79 1.612C1353.78 -2.86976 1358.03 -6.36273 1363 -8.42536C1367.97 -10.488 1373.44 -11.0276 1378.72 -9.97614C1383.84 -8.95714 1388.55 -6.48818 1392.3 -2.86785L1373.06 16.4L1372.71 16.7533L1373.06 17.1066ZM1463.9 17.1066L1464.25 16.7533L1463.9 16.4L1444.66 -2.86783C1448.41 -6.48817 1453.12 -8.95715 1458.24 -9.97614C1463.51 -11.0277 1468.99 -10.488 1473.96 -8.42537C1478.93 -6.36274 1483.18 -2.86977 1486.17 1.61199C1489.16 6.09375 1490.75 11.363 1490.75 16.7533C1490.75 22.1436 1489.16 27.4128 1486.17 31.8946C1483.18 36.3763 1478.93 39.8693 1473.96 41.9319C1468.99 43.9945 1463.51 44.5342 1458.24 43.4827C1453.12 42.4637 1448.41 39.9948 1444.66 36.3744L1463.9 17.1066ZM1443.95 -2.16341L1462.83 16.7501C1460.38 19.1162 1457.51 21.0018 1454.36 22.3076C1451.06 23.6771 1447.52 24.382 1443.95 24.382C1440.38 24.382 1436.84 23.6771 1433.54 22.3076C1430.39 21.0018 1427.52 19.1162 1425.07 16.7501L1443.95 -2.16341Z" stroke="#487FFF"/>
<path d="M1229.26 35.67L1210.37 16.7565C1212.83 14.3904 1215.7 12.5048 1218.85 11.199C1222.15 9.82947 1225.69 9.12458 1229.26 9.12458C1232.83 9.12458 1236.37 9.82946 1239.67 11.199C1242.82 12.5048 1245.69 14.3904 1248.14 16.7565L1229.26 35.67ZM1209.31 17.1066L1228.55 36.3744C1224.8 39.9948 1220.09 42.4637 1214.97 43.4827C1209.7 44.5342 1204.22 43.9946 1199.25 41.9319C1194.28 39.8693 1190.03 36.3763 1187.04 31.8946C1184.05 27.4128 1182.46 22.1436 1182.46 16.7533C1182.46 11.363 1184.05 6.09376 1187.04 1.612C1190.03 -2.86976 1194.28 -6.36273 1199.25 -8.42536C1204.22 -10.488 1209.7 -11.0276 1214.97 -9.97614C1220.09 -8.95714 1224.8 -6.48818 1228.55 -2.86785L1209.31 16.4L1208.96 16.7533L1209.31 17.1066ZM1300.15 17.1066L1300.5 16.7533L1300.15 16.4L1280.91 -2.86783C1284.66 -6.48817 1289.37 -8.95715 1294.49 -9.97614C1299.77 -11.0277 1305.24 -10.488 1310.21 -8.42537C1315.18 -6.36274 1319.43 -2.86977 1322.42 1.61199C1325.41 6.09375 1327.01 11.363 1327.01 16.7533C1327.01 22.1436 1325.41 27.4128 1322.42 31.8946C1319.43 36.3763 1315.18 39.8693 1310.21 41.9319C1305.24 43.9945 1299.77 44.5342 1294.49 43.4827C1289.37 42.4637 1284.66 39.9948 1280.91 36.3744L1300.15 17.1066ZM1280.2 -2.16341L1299.09 16.7501C1296.64 19.1162 1293.76 21.0018 1290.62 22.3076C1287.31 23.6771 1283.78 24.382 1280.2 24.382C1276.63 24.382 1273.09 23.6771 1269.79 22.3076C1266.64 21.0018 1263.77 19.1162 1261.32 16.7501L1280.2 -2.16341Z" stroke="#487FFF"/>
<path d="M1065.51 35.67L1046.63 16.7565C1049.08 14.3904 1051.95 12.5048 1055.1 11.199C1058.4 9.82947 1061.94 9.12458 1065.51 9.12458C1069.09 9.12458 1072.62 9.82946 1075.93 11.199C1079.07 12.5048 1081.95 14.3904 1084.4 16.7565L1065.51 35.67ZM1045.56 17.1066L1064.8 36.3744C1061.05 39.9948 1056.34 42.4637 1051.23 43.4827C1045.95 44.5342 1040.48 43.9946 1035.51 41.9319C1030.53 39.8693 1026.28 36.3763 1023.29 31.8946C1020.3 27.4128 1018.71 22.1436 1018.71 16.7533C1018.71 11.363 1020.3 6.09376 1023.29 1.612C1026.28 -2.86976 1030.53 -6.36273 1035.51 -8.42536C1040.48 -10.488 1045.95 -11.0276 1051.23 -9.97614C1056.34 -8.95714 1061.05 -6.48818 1064.8 -2.86785L1045.56 16.4L1045.21 16.7533L1045.56 17.1066ZM1136.4 17.1066L1136.76 16.7533L1136.4 16.4L1117.17 -2.86783C1120.92 -6.48817 1125.63 -8.95715 1130.74 -9.97614C1136.02 -11.0277 1141.49 -10.488 1146.46 -8.42537C1151.44 -6.36274 1155.69 -2.86977 1158.68 1.61199C1161.67 6.09375 1163.26 11.363 1163.26 16.7533C1163.26 22.1436 1161.67 27.4128 1158.68 31.8946C1155.69 36.3763 1151.44 39.8693 1146.46 41.9319C1141.49 43.9945 1136.02 44.5342 1130.74 43.4827C1125.63 42.4637 1120.92 39.9948 1117.17 36.3744L1136.4 17.1066ZM1116.46 -2.16341L1135.34 16.7501C1132.89 19.1162 1130.02 21.0018 1126.87 22.3076C1123.57 23.6771 1120.03 24.382 1116.46 24.382C1112.88 24.382 1109.35 23.6771 1106.04 22.3076C1102.9 21.0018 1100.02 19.1162 1097.57 16.7501L1116.46 -2.16341Z" stroke="#487FFF"/>
<path d="M901.766 35.67L882.882 16.7565C885.333 14.3904 888.206 12.5048 891.354 11.199C894.655 9.82947 898.193 9.12458 901.766 9.12458C905.34 9.12458 908.878 9.82946 912.179 11.199C915.326 12.5048 918.2 14.3904 920.651 16.7565L901.766 35.67ZM881.819 17.1066L901.057 36.3744C897.307 39.9948 892.596 42.4637 887.481 43.4827C882.203 44.5342 876.732 43.9946 871.76 41.9319C866.788 39.8693 862.538 36.3763 859.548 31.8946C856.558 27.4128 854.962 22.1436 854.962 16.7533C854.962 11.363 856.558 6.09376 859.548 1.612C862.538 -2.86976 866.788 -6.36273 871.76 -8.42536C876.732 -10.488 882.203 -11.0276 887.481 -9.97614C892.596 -8.95714 897.307 -6.48818 901.057 -2.86785L881.819 16.4L881.466 16.7533L881.819 17.1066ZM972.658 17.1066L973.011 16.7533L972.658 16.4L953.42 -2.86783C957.17 -6.48817 961.881 -8.95715 966.996 -9.97614C972.274 -11.0277 977.745 -10.488 982.717 -8.42537C987.689 -6.36274 991.939 -2.86977 994.929 1.61199C997.919 6.09375 999.515 11.363 999.515 16.7533C999.515 22.1436 997.919 27.4128 994.929 31.8946C991.939 36.3763 987.689 39.8693 982.717 41.9319C977.745 43.9945 972.274 44.5342 966.996 43.4827C961.881 42.4637 957.17 39.9948 953.42 36.3744L972.658 17.1066ZM952.711 -2.16341L971.595 16.7501C969.144 19.1162 966.271 21.0018 963.123 22.3076C959.822 23.6771 956.284 24.382 952.711 24.382C949.137 24.382 945.599 23.6771 942.298 22.3076C939.151 21.0018 936.277 19.1162 933.826 16.7501L952.711 -2.16341Z" stroke="#487FFF"/>
<path d="M738.02 35.67L719.135 16.7565C721.586 14.3904 724.459 12.5048 727.607 11.199C730.908 9.82947 734.446 9.12458 738.02 9.12458C741.593 9.12458 745.131 9.82946 748.432 11.199C751.58 12.5048 754.453 14.3904 756.904 16.7565L738.02 35.67ZM718.072 17.1066L737.31 36.3744C733.56 39.9948 728.849 42.4637 723.734 43.4827C718.456 44.5342 712.985 43.9946 708.013 41.9319C703.041 39.8693 698.791 36.3763 695.801 31.8946C692.811 27.4128 691.216 22.1436 691.216 16.7533C691.216 11.363 692.811 6.09376 695.801 1.612C698.791 -2.86976 703.041 -6.36273 708.013 -8.42536C712.985 -10.488 718.456 -11.0276 723.734 -9.97614C728.849 -8.95714 733.56 -6.48818 737.31 -2.86785L718.072 16.4L717.719 16.7533L718.072 17.1066ZM808.912 17.1066L809.264 16.7533L808.912 16.4L789.674 -2.86783C793.423 -6.48817 798.135 -8.95715 803.249 -9.97614C808.528 -11.0277 813.998 -10.488 818.97 -8.42537C823.942 -6.36274 828.192 -2.86977 831.182 1.61199C834.172 6.09375 835.768 11.363 835.768 16.7533C835.768 22.1436 834.172 27.4128 831.182 31.8946C828.192 36.3763 823.942 39.8693 818.97 41.9319C813.998 43.9945 808.528 44.5342 803.249 43.4827C798.135 42.4637 793.423 39.9948 789.674 36.3744L808.912 17.1066ZM788.964 -2.16341L807.848 16.7501C805.397 19.1162 802.524 21.0018 799.376 22.3076C796.075 23.6771 792.537 24.382 788.964 24.382C785.391 24.382 781.852 23.6771 778.551 22.3076C775.404 21.0018 772.53 19.1162 770.08 16.7501L788.964 -2.16341Z" stroke="#487FFF"/>
<path d="M574.273 35.67L555.389 16.7565C557.84 14.3904 560.713 12.5048 563.861 11.199C567.162 9.82947 570.7 9.12458 574.273 9.12458C577.847 9.12458 581.385 9.82946 584.686 11.199C587.834 12.5048 590.707 14.3904 593.158 16.7565L574.273 35.67ZM554.326 17.1066L573.564 36.3744C569.814 39.9948 565.103 42.4637 559.988 43.4827C554.71 44.5342 549.239 43.9946 544.267 41.9319C539.295 39.8693 535.045 36.3763 532.055 31.8946C529.065 27.4128 527.469 22.1436 527.469 16.7533C527.469 11.363 529.065 6.09376 532.055 1.612C535.045 -2.86976 539.295 -6.36273 544.267 -8.42536C549.239 -10.488 554.71 -11.0276 559.988 -9.97614C565.103 -8.95714 569.814 -6.48818 573.564 -2.86785L554.326 16.4L553.973 16.7533L554.326 17.1066ZM645.166 17.1066L645.518 16.7533L645.166 16.4L625.928 -2.86783C629.677 -6.48817 634.389 -8.95715 639.503 -9.97614C644.781 -11.0277 650.252 -10.488 655.224 -8.42537C660.196 -6.36274 664.446 -2.86977 667.436 1.61199C670.426 6.09375 672.022 11.363 672.022 16.7533C672.022 22.1436 670.426 27.4128 667.436 31.8946C664.446 36.3763 660.196 39.8693 655.224 41.9319C650.252 43.9945 644.781 44.5342 639.503 43.4827C634.389 42.4637 629.677 39.9948 625.927 36.3744L645.166 17.1066ZM625.218 -2.16341L644.102 16.7501C641.651 19.1162 638.778 21.0018 635.63 22.3076C632.329 23.6771 628.791 24.382 625.218 24.382C621.645 24.382 618.106 23.6771 614.805 22.3076C611.658 21.0018 608.784 19.1162 606.334 16.7501L625.218 -2.16341Z" stroke="#487FFF"/>
<path d="M410.527 35.67L391.643 16.7565C394.094 14.3904 396.967 12.5048 400.115 11.199C403.416 9.82947 406.954 9.12458 410.527 9.12458C414.1 9.12458 417.638 9.82946 420.94 11.199C424.087 12.5048 426.961 14.3904 429.411 16.7565L410.527 35.67ZM390.579 17.1066L409.817 36.3744C406.068 39.9948 401.356 42.4637 396.241 43.4827C390.963 44.5342 385.492 43.9946 380.521 41.9319C375.549 39.8693 371.299 36.3763 368.309 31.8946C365.319 27.4128 363.723 22.1436 363.723 16.7533C363.723 11.363 365.319 6.09376 368.309 1.612C371.299 -2.86976 375.549 -6.36273 380.521 -8.42536C385.492 -10.488 390.963 -11.0276 396.241 -9.97614C401.356 -8.95714 406.068 -6.48818 409.817 -2.86785L390.579 16.4L390.227 16.7533L390.579 17.1066ZM481.419 17.1066L481.772 16.7533L481.419 16.4L462.181 -2.86783C465.931 -6.48817 470.642 -8.95715 475.757 -9.97614C481.035 -11.0277 486.506 -10.488 491.478 -8.42537C496.45 -6.36274 500.699 -2.86977 503.689 1.61199C506.679 6.09375 508.275 11.363 508.275 16.7533C508.275 22.1436 506.679 27.4128 503.689 31.8946C500.699 36.3763 496.45 39.8693 491.478 41.9319C486.506 43.9945 481.035 44.5342 475.757 43.4827C470.642 42.4637 465.931 39.9948 462.181 36.3744L481.419 17.1066ZM461.471 -2.16341L480.356 16.7501C477.905 19.1162 475.032 21.0018 471.884 22.3076C468.583 23.6771 465.045 24.382 461.471 24.382C457.898 24.382 454.36 23.6771 451.059 22.3076C447.911 21.0018 445.038 19.1162 442.587 16.7501L461.471 -2.16341Z" stroke="#487FFF"/>
<path d="M246.782 35.67L227.898 16.7565C230.348 14.3904 233.222 12.5048 236.369 11.199C239.67 9.82947 243.209 9.12458 246.782 9.12458C250.355 9.12458 253.893 9.82946 257.194 11.199C260.342 12.5048 263.215 14.3904 265.666 16.7565L246.782 35.67ZM226.834 17.1066L246.072 36.3744C242.322 39.9948 237.611 42.4637 232.496 43.4827C227.218 44.5342 221.747 43.9946 216.775 41.9319C211.803 39.8693 207.554 36.3763 204.564 31.8946C201.574 27.4128 199.978 22.1436 199.978 16.7533C199.978 11.363 201.574 6.09376 204.564 1.612C207.554 -2.86976 211.803 -6.36273 216.775 -8.42536C221.747 -10.488 227.218 -11.0276 232.496 -9.97614C237.611 -8.95714 242.322 -6.48818 246.072 -2.86785L226.834 16.4L226.481 16.7533L226.834 17.1066ZM317.674 17.1066L318.027 16.7533L317.674 16.4L298.436 -2.86783C302.186 -6.48817 306.897 -8.95715 312.012 -9.97614C317.29 -11.0277 322.761 -10.488 327.733 -8.42537C332.704 -6.36274 336.954 -2.86977 339.944 1.61199C342.934 6.09375 344.53 11.363 344.53 16.7533C344.53 22.1436 342.934 27.4128 339.944 31.8946C336.954 36.3763 332.704 39.8693 327.733 41.9319C322.761 43.9945 317.29 44.5342 312.012 43.4827C306.897 42.4637 302.186 39.9948 298.436 36.3744L317.674 17.1066ZM297.726 -2.16341L316.61 16.7501C314.159 19.1162 311.286 21.0018 308.139 22.3076C304.837 23.6771 301.299 24.382 297.726 24.382C294.153 24.382 290.615 23.6771 287.313 22.3076C284.166 21.0018 281.293 19.1162 278.842 16.7501L297.726 -2.16341Z" stroke="#487FFF"/>
<path d="M83.0352 35.67L64.151 16.7565C66.6017 14.3904 69.475 12.5048 72.6226 11.199C75.9238 9.82947 79.462 9.12458 83.0352 9.12458C86.6083 9.12458 90.1465 9.82946 93.4477 11.199C96.5953 12.5048 99.4686 14.3904 101.919 16.7565L83.0352 35.67ZM63.0874 17.1066L82.3254 36.3744C78.5757 39.9948 73.8644 42.4637 68.7495 43.4827C63.4714 44.5342 58.0005 43.9946 53.0286 41.9319C48.0567 39.8693 43.807 36.3763 40.8171 31.8946C37.8271 27.4128 36.2312 22.1436 36.2312 16.7533C36.2312 11.363 37.8271 6.09376 40.8171 1.612C43.807 -2.86976 48.0567 -6.36273 53.0286 -8.42536C58.0005 -10.488 63.4714 -11.0276 68.7495 -9.97614C73.8644 -8.95714 78.5757 -6.48818 82.3254 -2.86785L63.0874 16.4L62.7346 16.7533L63.0874 17.1066ZM153.927 17.1066L154.28 16.7533L153.927 16.4L134.689 -2.86783C138.439 -6.48817 143.15 -8.95715 148.265 -9.97614C153.543 -11.0277 159.014 -10.488 163.986 -8.42537C168.958 -6.36274 173.208 -2.86977 176.198 1.61199C179.188 6.09375 180.783 11.363 180.783 16.7533C180.783 22.1436 179.188 27.4128 176.198 31.8946C173.208 36.3763 168.958 39.8693 163.986 41.9319C159.014 43.9945 153.543 44.5342 148.265 43.4827C143.15 42.4637 138.439 39.9948 134.689 36.3744L153.927 17.1066ZM133.979 -2.16341L152.864 16.7501C150.413 19.1162 147.54 21.0018 144.392 22.3076C141.091 23.6771 137.553 24.382 133.979 24.382C130.406 24.382 126.868 23.6771 123.567 22.3076C120.419 21.0018 117.546 19.1162 115.095 16.7501L133.979 -2.16341Z" stroke="#487FFF"/>
<path d="M-80.711 35.67L-99.5952 16.7565C-97.1445 14.3904 -94.2712 12.5048 -91.1236 11.199C-87.8224 9.82947 -84.2842 9.12458 -80.7111 9.12458C-77.1379 9.12458 -73.5997 9.82946 -70.2985 11.199C-67.151 12.5048 -64.2776 14.3904 -61.8269 16.7565L-80.711 35.67ZM-100.659 17.1066L-81.4208 36.3744C-85.1705 39.9948 -89.8819 42.4637 -94.9967 43.4827C-100.275 44.5342 -105.746 43.9946 -110.718 41.9319C-115.689 39.8693 -119.939 36.3763 -122.929 31.8946C-125.919 27.4128 -127.515 22.1436 -127.515 16.7533C-127.515 11.363 -125.919 6.09376 -122.929 1.612C-119.939 -2.86976 -115.69 -6.36273 -110.718 -8.42536C-105.746 -10.488 -100.275 -11.0276 -94.9967 -9.97614C-89.8818 -8.95714 -85.1705 -6.48818 -81.4208 -2.86785L-100.659 16.4L-101.012 16.7533L-100.659 17.1066ZM-9.81897 17.1066L-9.46624 16.7533L-9.81897 16.4L-29.057 -2.86783C-25.3073 -6.48817 -20.596 -8.95715 -15.4811 -9.97614C-10.203 -11.0277 -4.73214 -10.488 0.239755 -8.42537C5.21165 -6.36274 9.46134 -2.86977 12.4513 1.61199C15.4413 6.09375 17.0372 11.363 17.0372 16.7533C17.0372 22.1436 15.4413 27.4128 12.4513 31.8946C9.46134 36.3763 5.21166 39.8693 0.239759 41.9319C-4.73213 43.9945 -10.203 44.5342 -15.4811 43.4827C-20.596 42.4637 -25.3073 39.9948 -29.057 36.3744L-9.81897 17.1066ZM-29.7668 -2.16341L-10.8826 16.7501C-13.3333 19.1162 -16.2067 21.0018 -19.3542 22.3076C-22.6554 23.6771 -26.1936 24.382 -29.7668 24.382C-33.3399 24.382 -36.8781 23.6771 -40.1794 22.3076C-43.3269 21.0018 -46.2002 19.1162 -48.6509 16.7501L-29.7668 -2.16341Z" stroke="#487FFF"/>
</mask>
<g mask="url(#mask0_118_890)">
<rect x="-783" y="-53.6965" width="2438" height="149.44" fill="url(#paint0_linear_118_890)"/>
</g>
</g>
<defs>
<linearGradient id="paint0_linear_118_890" x1="1655" y1="23.1571" x2="-783" y2="23.1578" gradientUnits="userSpaceOnUse">
<stop stop-color="white"/>
<stop offset="1" stop-color="white" stop-opacity="0"/>
</linearGradient>
</defs>
</svg>
