<svg width="28" height="655" viewBox="0 0 28 655" fill="none" xmlns="http://www.w3.org/2000/svg">
<g opacity="0.3">
<mask id="mask0_42_743" style="mask-type:alpha" maskUnits="userSpaceOnUse" x="0" y="-544" width="28" height="1199">
<path d="M14.0022 596.692L13.649 597.046L13.2957 596.692L4.00447 605.969C2.35462 604.191 1.22747 601.99 0.752718 599.607C0.245427 597.06 0.505778 594.421 1.50089 592.022C2.496 589.623 4.18121 587.573 6.34354 586.131C8.50588 584.688 11.0482 583.918 13.649 583.918C16.2497 583.918 18.792 584.688 20.9544 586.131C23.1167 587.573 24.8019 589.623 25.797 592.022C26.7921 594.421 27.0525 597.06 26.5452 599.607C26.0704 601.99 24.9433 604.191 23.2934 605.969L14.0022 596.692ZM13.6423 615.605L4.70541 606.682L13.6422 597.759C14.7008 598.899 15.5489 600.219 16.1458 601.658C16.8066 603.251 17.1466 604.958 17.1466 606.682C17.1466 608.406 16.8066 610.113 16.1458 611.705C15.5489 613.144 14.7008 614.464 13.6423 615.605ZM14.0022 641.726L23.2934 632.449C24.9433 634.227 26.0704 636.428 26.5452 638.811C27.0525 641.358 26.7921 643.997 25.797 646.396C24.8019 648.794 23.1167 650.845 20.9544 652.287C18.792 653.73 16.2497 654.5 13.649 654.5C11.0482 654.5 8.50588 653.73 6.34354 652.287C4.18122 650.845 2.496 648.794 1.50089 646.396C0.505784 643.997 0.245431 641.358 0.752722 638.811C1.22747 636.428 2.35462 634.227 4.00447 632.449L13.2957 641.726L13.6489 641.372L14.0022 641.726ZM22.5925 631.736L13.6557 640.659C12.5971 639.519 11.749 638.198 11.1521 636.76C10.4914 635.167 10.1513 633.46 10.1513 631.736C10.1513 630.012 10.4913 628.305 11.1521 626.713C11.749 625.274 12.5971 623.954 13.6557 622.813L22.5925 631.736Z" stroke="#487FFF"/>
<path d="M14.0022 516.162L13.649 516.516L13.2957 516.162L4.00447 525.439C2.35462 523.662 1.22747 521.46 0.752718 519.077C0.245427 516.531 0.505778 513.891 1.50089 511.493C2.496 509.094 4.18121 507.044 6.34354 505.601C8.50588 504.158 11.0482 503.388 13.649 503.388C16.2497 503.388 18.792 504.158 20.9544 505.601C23.1167 507.044 24.8019 509.094 25.797 511.493C26.7921 513.891 27.0525 516.531 26.5452 519.077C26.0704 521.46 24.9433 523.662 23.2934 525.439L14.0022 516.162ZM13.6423 535.075L4.70541 526.152L13.6422 517.229C14.7008 518.37 15.5489 519.69 16.1458 521.129C16.8066 522.721 17.1466 524.428 17.1466 526.152C17.1466 527.876 16.8066 529.583 16.1458 531.176C15.5489 532.615 14.7008 533.935 13.6423 535.075ZM14.0022 561.197L23.2934 551.92C24.9433 553.697 26.0704 555.899 26.5452 558.282C27.0525 560.828 26.7921 563.468 25.797 565.866C24.8019 568.265 23.1167 570.315 20.9544 571.758C18.792 573.2 16.2497 573.97 13.649 573.97C11.0482 573.97 8.50588 573.2 6.34354 571.758C4.18122 570.315 2.496 568.265 1.50089 565.866C0.505784 563.468 0.245431 560.828 0.752722 558.282C1.22747 555.899 2.35462 553.697 4.00447 551.92L13.2957 561.197L13.6489 560.843L14.0022 561.197ZM22.5925 551.207L13.6557 560.129C12.5971 558.989 11.749 557.669 11.1521 556.23C10.4914 554.637 10.1513 552.93 10.1513 551.207C10.1513 549.483 10.4913 547.776 11.1521 546.183C11.749 544.744 12.5971 543.424 13.6557 542.284L22.5925 551.207Z" stroke="#487FFF"/>
<path d="M14.0022 435.632L13.649 435.986L13.2957 435.632L4.00447 444.909C2.35462 443.131 1.22747 440.93 0.752718 438.547C0.245427 436 0.505778 433.361 1.50089 430.962C2.496 428.564 4.18121 426.513 6.34354 425.071C8.50588 423.628 11.0482 422.858 13.649 422.858C16.2497 422.858 18.792 423.628 20.9544 425.071C23.1167 426.513 24.8019 428.564 25.797 430.962C26.7921 433.361 27.0525 436 26.5452 438.547C26.0704 440.93 24.9433 443.131 23.2934 444.909L14.0022 435.632ZM13.6423 454.545L4.70541 445.622L13.6422 436.699C14.7008 437.839 15.5489 439.16 16.1458 440.599C16.8066 442.191 17.1466 443.898 17.1466 445.622C17.1466 447.346 16.8066 449.053 16.1458 450.646C15.5489 452.084 14.7008 453.405 13.6423 454.545ZM14.0022 480.666L23.2934 471.39C24.9433 473.167 26.0704 475.368 26.5452 477.752C27.0525 480.298 26.7921 482.937 25.797 485.336C24.8019 487.735 23.1167 489.785 20.9544 491.228C18.792 492.67 16.2497 493.44 13.649 493.44C11.0482 493.44 8.50588 492.67 6.34354 491.228C4.18122 489.785 2.496 487.735 1.50089 485.336C0.505784 482.937 0.245431 480.298 0.752722 477.752C1.22747 475.368 2.35462 473.167 4.00447 471.389L13.2957 480.666L13.6489 480.312L14.0022 480.666ZM22.5925 470.676L13.6557 479.599C12.5971 478.459 11.749 477.139 11.1521 475.7C10.4914 474.107 10.1513 472.4 10.1513 470.676C10.1513 468.952 10.4913 467.245 11.1521 465.653C11.749 464.214 12.5971 462.894 13.6557 461.753L22.5925 470.676Z" stroke="#487FFF"/>
<path d="M14.0022 355.102L13.649 355.456L13.2957 355.102L4.00447 364.379C2.35462 362.601 1.22747 360.4 0.752718 358.017C0.245427 355.471 0.505778 352.831 1.50089 350.432C2.496 348.034 4.18121 345.983 6.34354 344.541C8.50588 343.098 11.0482 342.328 13.649 342.328C16.2497 342.328 18.792 343.098 20.9544 344.541C23.1167 345.983 24.8019 348.034 25.797 350.432C26.7921 352.831 27.0525 355.471 26.5452 358.017C26.0704 360.4 24.9433 362.601 23.2934 364.379L14.0022 355.102ZM13.6423 374.015L4.70541 365.092L13.6422 356.169C14.7008 357.31 15.5489 358.63 16.1458 360.069C16.8066 361.661 17.1466 363.368 17.1466 365.092C17.1466 366.816 16.8066 368.523 16.1458 370.116C15.5489 371.555 14.7008 372.875 13.6423 374.015ZM14.0022 400.137L23.2934 390.86C24.9433 392.637 26.0704 394.839 26.5452 397.222C27.0525 399.768 26.7921 402.408 25.797 404.806C24.8019 407.205 23.1167 409.255 20.9544 410.698C18.792 412.14 16.2497 412.91 13.649 412.91C11.0482 412.91 8.50588 412.14 6.34354 410.698C4.18122 409.255 2.496 407.205 1.50089 404.806C0.505784 402.408 0.245431 399.768 0.752722 397.222C1.22747 394.839 2.35462 392.637 4.00447 390.86L13.2957 400.137L13.6489 399.783L14.0022 400.137ZM22.5925 390.146L13.6557 399.069C12.5971 397.929 11.749 396.609 11.1521 395.17C10.4914 393.577 10.1513 391.87 10.1513 390.146C10.1513 388.423 10.4913 386.716 11.1521 385.123C11.749 383.684 12.5971 382.364 13.6557 381.223L22.5925 390.146Z" stroke="#487FFF"/>
<path d="M14.0022 274.572L13.649 274.926L13.2957 274.572L4.00447 283.849C2.35462 282.072 1.22747 279.87 0.752718 277.487C0.245427 274.941 0.505778 272.301 1.50089 269.903C2.496 267.504 4.18121 265.454 6.34354 264.011C8.50588 262.568 11.0482 261.798 13.649 261.798C16.2497 261.798 18.792 262.568 20.9544 264.011C23.1167 265.454 24.8019 267.504 25.797 269.903C26.7921 272.301 27.0525 274.941 26.5452 277.487C26.0704 279.87 24.9433 282.072 23.2934 283.849L14.0022 274.572ZM13.6423 293.485L4.70541 284.562L13.6422 275.639C14.7008 276.78 15.5489 278.1 16.1458 279.539C16.8066 281.131 17.1466 282.838 17.1466 284.562C17.1466 286.286 16.8066 287.993 16.1458 289.586C15.5489 291.025 14.7008 292.345 13.6423 293.485ZM14.0022 319.607L23.2934 310.33C24.9433 312.107 26.0704 314.309 26.5452 316.692C27.0525 319.238 26.7921 321.878 25.797 324.276C24.8019 326.675 23.1167 328.725 20.9544 330.168C18.792 331.61 16.2497 332.38 13.649 332.38C11.0482 332.38 8.50588 331.61 6.34354 330.168C4.18122 328.725 2.496 326.675 1.50089 324.276C0.505784 321.878 0.245431 319.238 0.752722 316.692C1.22747 314.309 2.35462 312.107 4.00447 310.33L13.2957 319.607L13.6489 319.253L14.0022 319.607ZM22.5925 309.617L13.6557 318.54C12.5971 317.399 11.749 316.079 11.1521 314.64C10.4914 313.047 10.1513 311.34 10.1513 309.617C10.1513 307.893 10.4913 306.186 11.1521 304.593C11.749 303.154 12.5971 301.834 13.6557 300.694L22.5925 309.617Z" stroke="#487FFF"/>
<path d="M14.0022 194.042L13.649 194.396L13.2957 194.042L4.00447 203.319C2.35462 201.542 1.22747 199.34 0.752718 196.957C0.245427 194.411 0.505778 191.771 1.50089 189.373C2.496 186.974 4.18121 184.924 6.34354 183.481C8.50588 182.038 11.0482 181.268 13.649 181.268C16.2497 181.268 18.792 182.038 20.9544 183.481C23.1167 184.924 24.8019 186.974 25.797 189.373C26.7921 191.771 27.0525 194.411 26.5452 196.957C26.0704 199.34 24.9433 201.542 23.2934 203.319L14.0022 194.042ZM13.6423 212.955L4.70541 204.032L13.6422 195.109C14.7008 196.25 15.5489 197.57 16.1458 199.009C16.8066 200.601 17.1466 202.308 17.1466 204.032C17.1466 205.756 16.8066 207.463 16.1458 209.056C15.5489 210.495 14.7008 211.815 13.6423 212.955ZM14.0022 239.077L23.2934 229.8C24.9433 231.577 26.0704 233.779 26.5452 236.162C27.0525 238.708 26.7921 241.348 25.797 243.746C24.8019 246.145 23.1167 248.195 20.9544 249.638C18.792 251.08 16.2497 251.85 13.649 251.85C11.0482 251.85 8.50588 251.08 6.34354 249.638C4.18122 248.195 2.496 246.145 1.50089 243.746C0.505784 241.348 0.245431 238.708 0.752722 236.162C1.22747 233.779 2.35462 231.577 4.00447 229.8L13.2957 239.077L13.6489 238.723L14.0022 239.077ZM22.5925 229.087L13.6557 238.01C12.5971 236.869 11.749 235.549 11.1521 234.11C10.4914 232.517 10.1513 230.81 10.1513 229.087C10.1513 227.363 10.4913 225.656 11.1521 224.063C11.749 222.624 12.5971 221.304 13.6557 220.164L22.5925 229.087Z" stroke="#487FFF"/>
<path d="M14.0022 113.512L13.649 113.866L13.2957 113.512L4.00447 122.789C2.35462 121.012 1.22747 118.81 0.752718 116.427C0.245427 113.881 0.505778 111.241 1.50089 108.843C2.496 106.444 4.18121 104.394 6.34354 102.951C8.50588 101.509 11.0482 100.739 13.649 100.739C16.2497 100.739 18.792 101.509 20.9544 102.951C23.1167 104.394 24.8019 106.444 25.797 108.843C26.7921 111.241 27.0525 113.881 26.5452 116.427C26.0704 118.81 24.9433 121.012 23.2934 122.789L14.0022 113.512ZM13.6423 132.425L4.70541 123.503L13.6422 114.58C14.7008 115.72 15.5489 117.04 16.1458 118.479C16.8066 120.072 17.1466 121.779 17.1466 123.503C17.1466 125.226 16.8066 126.933 16.1458 128.526C15.5489 129.965 14.7008 131.285 13.6423 132.425ZM14.0022 158.547L23.2934 149.27C24.9433 151.047 26.0704 153.249 26.5452 155.632C27.0525 158.178 26.7921 160.818 25.797 163.216C24.8019 165.615 23.1167 167.665 20.9544 169.108C18.792 170.551 16.2497 171.321 13.649 171.321C11.0482 171.321 8.50588 170.551 6.34354 169.108C4.18122 167.665 2.496 165.615 1.50089 163.216C0.505784 160.818 0.245431 158.178 0.752722 155.632C1.22747 153.249 2.35462 151.047 4.00447 149.27L13.2957 158.547L13.6489 158.193L14.0022 158.547ZM22.5925 148.557L13.6557 157.48C12.5971 156.339 11.749 155.019 11.1521 153.58C10.4914 151.988 10.1513 150.281 10.1513 148.557C10.1513 146.833 10.4913 145.126 11.1521 143.533C11.749 142.094 12.5971 140.774 13.6557 139.634L22.5925 148.557Z" stroke="#487FFF"/>
<path d="M14.0022 32.9824L13.649 33.3362L13.2957 32.9824L4.00447 42.2592C2.35462 40.4817 1.22747 38.2802 0.752718 35.8972C0.245427 33.3508 0.505778 30.7114 1.50089 28.3127C2.496 25.9141 4.18121 23.8637 6.34354 22.4212C8.50588 20.9786 11.0482 20.2085 13.649 20.2085C16.2497 20.2085 18.792 20.9786 20.9544 22.4212C23.1167 23.8637 24.8019 25.9141 25.797 28.3127C26.7921 30.7114 27.0525 33.3508 26.5452 35.8972C26.0704 38.2802 24.9433 40.4817 23.2934 42.2592L14.0022 32.9824ZM13.6423 51.8955L4.70541 42.9725L13.6422 34.0495C14.7008 35.19 15.5489 36.5101 16.1458 37.949C16.8066 39.5416 17.1466 41.2486 17.1466 42.9725C17.1466 44.6963 16.8066 46.4033 16.1458 47.996C15.5489 49.4349 14.7008 50.755 13.6423 51.8955ZM14.0022 78.0168L23.2934 68.74C24.9433 70.5175 26.0704 72.719 26.5452 75.102C27.0525 77.6484 26.7921 80.2878 25.797 82.6864C24.8019 85.0851 23.1167 87.1354 20.9544 88.578C18.792 90.0206 16.2497 90.7906 13.649 90.7906C11.0482 90.7906 8.50588 90.0206 6.34354 88.578C4.18122 87.1354 2.496 85.0851 1.50089 82.6864C0.505784 80.2878 0.245431 77.6484 0.752722 75.102C1.22747 72.719 2.35462 70.5174 4.00447 68.74L13.2957 78.0168L13.6489 77.663L14.0022 78.0168ZM22.5925 68.0267L13.6557 76.9497C12.5971 75.8092 11.749 74.4891 11.1521 73.0502C10.4914 71.4575 10.1513 69.7506 10.1513 68.0267C10.1513 66.3029 10.4913 64.5959 11.1521 63.0032C11.749 61.5643 12.5971 60.2442 13.6557 59.1037L22.5925 68.0267Z" stroke="#487FFF"/>
<path d="M14.0022 -47.547L13.649 -47.1932L13.2957 -47.547L4.00447 -38.2702C2.35462 -40.0477 1.22747 -42.2492 0.752718 -44.6322C0.245427 -47.1786 0.505778 -49.818 1.50089 -52.2167C2.496 -54.6154 4.18121 -56.6657 6.34354 -58.1083C8.50588 -59.5509 11.0482 -60.3209 13.649 -60.3209C16.2497 -60.3209 18.792 -59.5509 20.9544 -58.1083C23.1167 -56.6657 24.8019 -54.6154 25.797 -52.2167C26.7921 -49.818 27.0525 -47.1786 26.5452 -44.6322C26.0704 -42.2492 24.9433 -40.0477 23.2934 -38.2702L14.0022 -47.547ZM13.6423 -28.634L4.70541 -37.5569L13.6422 -46.4799C14.7008 -45.3395 15.5489 -44.0193 16.1458 -42.5804C16.8066 -40.9878 17.1466 -39.2808 17.1466 -37.5569C17.1466 -35.8331 16.8066 -34.1261 16.1458 -32.5334C15.5489 -31.0945 14.7008 -29.7744 13.6423 -28.634ZM14.0022 -2.51264L23.2934 -11.7895C24.9433 -10.012 26.0704 -7.81046 26.5452 -5.42742C27.0525 -2.88105 26.7921 -0.241656 25.797 2.15702C24.8019 4.55571 23.1167 6.60603 20.9544 8.04861C18.792 9.4912 16.2497 10.2612 13.649 10.2612C11.0482 10.2612 8.50588 9.4912 6.34354 8.04861C4.18122 6.60603 2.496 4.55571 1.50089 2.15702C0.505784 -0.241654 0.245431 -2.88105 0.752722 -5.42742C1.22747 -7.81046 2.35462 -10.012 4.00447 -11.7895L13.2957 -2.51264L13.6489 -2.86647L14.0022 -2.51264ZM22.5925 -12.5027L13.6557 -3.57973C12.5971 -4.72018 11.749 -6.04032 11.1521 -7.47921C10.4914 -9.07188 10.1513 -10.7789 10.1513 -12.5027C10.1513 -14.2266 10.4913 -15.9335 11.1521 -17.5262C11.749 -18.9651 12.5971 -20.2852 13.6557 -21.4257L22.5925 -12.5027Z" stroke="#487FFF"/>
</mask>
<g mask="url(#mask0_42_743)">
<rect x="48.296" y="-544" width="1199" height="73.4939" transform="rotate(90 48.296 -544)" fill="url(#paint0_linear_42_743)"/>
</g>
</g>
<defs>
<linearGradient id="paint0_linear_42_743" x1="1247.3" y1="-506.204" x2="48.296" y2="-506.203" gradientUnits="userSpaceOnUse">
<stop stop-color="white"/>
<stop offset="1" stop-color="white" stop-opacity="0"/>
</linearGradient>
</defs>
</svg>
