<svg width="1380" height="70" viewBox="0 0 1380 70" fill="none" xmlns="http://www.w3.org/2000/svg">
<g opacity="0.5">
<mask id="mask0_74_109" style="mask-type:alpha" maskUnits="userSpaceOnUse" x="-1262" y="-17" width="3804" height="87">
<path d="M1366.4 56.206L1336.54 26.2998C1340.43 22.4909 1345.02 19.4608 1350.05 17.3738C1355.23 15.2231 1360.79 14.1161 1366.4 14.1161C1372.01 14.1161 1377.57 15.2231 1382.75 17.3738C1387.78 19.4608 1392.37 22.4909 1396.26 26.2997L1366.4 56.206ZM1335.48 26.651L1365.69 56.9116C1359.77 62.7052 1352.29 66.6541 1344.17 68.2729C1335.88 69.9242 1327.29 69.0767 1319.48 65.8376C1311.67 62.5984 1305 57.1131 1300.3 50.075C1295.61 43.037 1293.1 34.7624 1293.1 26.2977C1293.1 17.833 1295.61 9.55842 1300.3 2.52039C1305 -4.51763 1311.67 -10.003 1319.48 -13.2421C1327.29 -16.4813 1335.88 -17.3288 1344.17 -15.6775C1352.29 -14.0587 1359.77 -10.1098 1365.69 -4.31618L1335.48 25.9444L1335.13 26.2977L1335.48 26.651ZM1476.8 26.651L1477.15 26.2977L1476.8 25.9445L1446.59 -4.31616C1452.51 -10.1097 1459.99 -14.0587 1468.11 -15.6775C1476.4 -17.3288 1484.99 -16.4813 1492.8 -13.2421C1500.61 -10.003 1507.28 -4.51765 1511.98 2.52037C1516.67 9.5584 1519.18 17.833 1519.18 26.2977C1519.18 34.7624 1516.67 43.037 1511.98 50.075C1507.28 57.113 1500.61 62.5984 1492.8 65.8375C1484.99 69.0767 1476.4 69.9242 1468.11 68.2729C1459.99 66.6541 1452.51 62.7052 1446.59 56.9116L1476.8 26.651ZM1445.88 -3.61056L1475.74 26.2957C1471.85 30.1045 1467.26 33.1346 1462.23 35.2216C1457.05 37.3723 1451.49 38.4793 1445.88 38.4793C1440.27 38.4793 1434.71 37.3723 1429.53 35.2216C1424.5 33.1347 1419.91 30.1045 1416.02 26.2957L1445.88 -3.61056Z" stroke="#487FFF"/>
<path d="M1110.94 56.206L1081.08 26.2998C1084.97 22.4909 1089.56 19.4608 1094.59 17.3738C1099.77 15.2231 1105.33 14.1161 1110.94 14.1161C1116.55 14.1161 1122.11 15.2231 1127.29 17.3738C1132.32 19.4608 1136.91 22.4909 1140.8 26.2997L1110.94 56.206ZM1080.02 26.651L1110.23 56.9116C1104.31 62.7052 1096.83 66.6541 1088.71 68.2729C1080.42 69.9242 1071.83 69.0767 1064.02 65.8376C1056.21 62.5984 1049.54 57.1131 1044.84 50.075C1040.15 43.037 1037.64 34.7624 1037.64 26.2977C1037.64 17.833 1040.15 9.55842 1044.84 2.52039C1049.54 -4.51763 1056.21 -10.003 1064.02 -13.2421C1071.83 -16.4813 1080.42 -17.3288 1088.71 -15.6775C1096.83 -14.0587 1104.31 -10.1098 1110.23 -4.31618L1080.02 25.9444L1079.67 26.2977L1080.02 26.651ZM1221.34 26.651L1221.69 26.2977L1221.34 25.9445L1191.13 -4.31616C1197.05 -10.1097 1204.53 -14.0587 1212.65 -15.6775C1220.94 -17.3288 1229.53 -16.4813 1237.34 -13.2421C1245.15 -10.003 1251.82 -4.51765 1256.52 2.52037C1261.21 9.5584 1263.72 17.833 1263.72 26.2977C1263.72 34.7624 1261.21 43.037 1256.52 50.075C1251.82 57.113 1245.15 62.5984 1237.34 65.8375C1229.53 69.0767 1220.94 69.9242 1212.65 68.2729C1204.53 66.6541 1197.05 62.7052 1191.13 56.9116L1221.34 26.651ZM1190.42 -3.61056L1220.28 26.2957C1216.39 30.1045 1211.8 33.1346 1206.77 35.2216C1201.59 37.3723 1196.03 38.4793 1190.42 38.4793C1184.81 38.4793 1179.25 37.3723 1174.07 35.2216C1169.04 33.1347 1164.45 30.1045 1160.56 26.2957L1190.42 -3.61056Z" stroke="#487FFF"/>
<path d="M855.48 56.206L825.62 26.2998C829.513 22.4909 834.098 19.4608 839.128 17.3738C844.312 15.2231 849.869 14.1161 855.48 14.1161C861.091 14.1161 866.648 15.2231 871.832 17.3738C876.863 19.4608 881.447 22.4909 885.34 26.2997L855.48 56.206ZM824.558 26.651L854.772 56.9116C848.85 62.7052 841.373 66.6541 833.248 68.2729C824.959 69.9242 816.368 69.0767 808.56 65.8376C800.752 62.5984 794.078 57.1131 789.383 50.075C784.687 43.037 782.181 34.7624 782.181 26.2977C782.181 17.833 784.687 9.55842 789.383 2.52039C794.078 -4.51763 800.752 -10.003 808.56 -13.2421C816.368 -16.4813 824.959 -17.3288 833.248 -15.6775C841.373 -14.0587 848.85 -10.1098 854.772 -4.31618L824.558 25.9444L824.205 26.2977L824.558 26.651ZM965.881 26.651L966.233 26.2977L965.881 25.9445L935.667 -4.31616C941.588 -10.1097 949.065 -14.0587 957.191 -15.6775C965.479 -17.3288 974.071 -16.4813 981.879 -13.2421C989.687 -10.003 996.36 -4.51765 1001.06 2.52037C1005.75 9.5584 1008.26 17.833 1008.26 26.2977C1008.26 34.7624 1005.75 43.037 1001.06 50.075C996.36 57.113 989.687 62.5984 981.879 65.8375C974.071 69.0767 965.479 69.9242 957.191 68.2729C949.065 66.6541 941.588 62.7052 935.667 56.9116L965.881 26.651ZM934.958 -3.61056L964.818 26.2957C960.925 30.1045 956.341 33.1346 951.31 35.2216C946.126 37.3723 940.57 38.4793 934.958 38.4793C929.347 38.4793 923.79 37.3723 918.606 35.2216C913.576 33.1347 908.991 30.1045 905.098 26.2957L934.958 -3.61056Z" stroke="#487FFF"/>
<path d="M600.02 56.206L570.16 26.2998C574.053 22.4909 578.637 19.4608 583.668 17.3738C588.852 15.2231 594.408 14.1161 600.02 14.1161C605.631 14.1161 611.187 15.2231 616.372 17.3738C621.402 19.4608 625.987 22.4909 629.88 26.2997L600.02 56.206ZM569.097 26.651L599.311 56.9116C593.39 62.7052 585.913 66.6541 577.787 68.2729C569.499 69.9242 560.907 69.0767 553.099 65.8376C545.291 62.5984 538.618 57.1131 533.922 50.075C529.227 43.037 526.721 34.7624 526.721 26.2977C526.721 17.833 529.227 9.55842 533.922 2.52039C538.618 -4.51763 545.291 -10.003 553.099 -13.2421C560.907 -16.4813 569.499 -17.3288 577.787 -15.6775C585.913 -14.0587 593.39 -10.1098 599.311 -4.31618L569.097 25.9444L568.745 26.2977L569.097 26.651ZM710.42 26.651L710.773 26.2977L710.42 25.9445L680.206 -4.31616C686.128 -10.1097 693.604 -14.0587 701.73 -15.6775C710.019 -17.3288 718.61 -16.4813 726.418 -13.2421C734.226 -10.003 740.9 -4.51765 745.595 2.52037C750.29 9.5584 752.797 17.833 752.797 26.2977C752.797 34.7624 750.29 43.037 745.595 50.075C740.9 57.113 734.226 62.5984 726.418 65.8375C718.61 69.0767 710.019 69.9242 701.73 68.2729C693.604 66.6541 686.128 62.7052 680.206 56.9116L710.42 26.651ZM679.498 -3.61056L709.358 26.2957C705.465 30.1045 700.88 33.1346 695.85 35.2216C690.665 37.3723 685.109 38.4793 679.498 38.4793C673.886 38.4793 668.33 37.3723 663.146 35.2216C658.115 33.1347 653.531 30.1045 649.638 26.2957L679.498 -3.61056Z" stroke="#487FFF"/>
<path d="M344.561 56.206L314.701 26.2998C318.594 22.4909 323.178 19.4608 328.209 17.3738C333.393 15.2231 338.949 14.1161 344.561 14.1161C350.172 14.1161 355.729 15.2231 360.913 17.3738C365.943 19.4608 370.528 22.4909 374.421 26.2997L344.561 56.206ZM313.639 26.651L343.852 56.9116C337.931 62.7052 330.454 66.6541 322.328 68.2729C314.04 69.9242 305.448 69.0767 297.64 65.8376C289.832 62.5984 283.159 57.1131 278.463 50.075C273.768 43.037 271.262 34.7624 271.262 26.2977C271.262 17.833 273.768 9.55842 278.463 2.52039C283.159 -4.51763 289.832 -10.003 297.64 -13.2421C305.448 -16.4813 314.04 -17.3288 322.328 -15.6775C330.454 -14.0587 337.931 -10.1098 343.852 -4.31618L313.639 25.9444L313.286 26.2977L313.639 26.651ZM454.961 26.651L455.314 26.2977L454.961 25.9445L424.747 -4.31616C430.669 -10.1097 438.146 -14.0587 446.271 -15.6775C454.56 -17.3288 463.151 -16.4813 470.959 -13.2421C478.767 -10.003 485.441 -4.51765 490.136 2.52037C494.832 9.5584 497.338 17.833 497.338 26.2977C497.338 34.7624 494.832 43.037 490.136 50.075C485.441 57.113 478.767 62.5984 470.959 65.8375C463.151 69.0767 454.56 69.9242 446.271 68.2729C438.146 66.6541 430.669 62.7052 424.747 56.9116L454.961 26.651ZM424.039 -3.61056L453.899 26.2957C450.006 30.1045 445.421 33.1346 440.391 35.2216C435.207 37.3723 429.65 38.4793 424.039 38.4793C418.428 38.4793 412.871 37.3723 407.687 35.2216C402.656 33.1347 398.072 30.1045 394.179 26.2957L424.039 -3.61056Z" stroke="#487FFF"/>
<path d="M89.1 56.206L59.2401 26.2998C63.1329 22.4909 67.7174 19.4608 72.748 17.3738C77.9322 15.2231 83.4887 14.1161 89.1 14.1161C94.7113 14.1161 100.268 15.2231 105.452 17.3738C110.483 19.4608 115.067 22.4909 118.96 26.2997L89.1 56.206ZM58.1777 26.651L88.3914 56.9116C82.4702 62.7052 74.9932 66.6541 66.8676 68.2729C58.5789 69.9242 49.9874 69.0767 42.1795 65.8376C34.3717 62.5984 27.698 57.1131 23.0027 50.075C18.3073 43.037 15.8011 34.7624 15.8011 26.2977C15.8011 17.833 18.3073 9.55842 23.0027 2.52039C27.698 -4.51763 34.3717 -10.003 42.1795 -13.2421C49.9874 -16.4813 58.5789 -17.3288 66.8677 -15.6775C74.9932 -14.0587 82.4702 -10.1098 88.3914 -4.31618L58.1777 25.9444L57.8249 26.2977L58.1777 26.651ZM199.5 26.651L199.853 26.2977L199.5 25.9445L169.287 -4.31616C175.208 -10.1097 182.685 -14.0587 190.81 -15.6775C199.099 -17.3288 207.691 -16.4813 215.499 -13.2421C223.306 -10.003 229.98 -4.51765 234.675 2.52037C239.371 9.5584 241.877 17.833 241.877 26.2977C241.877 34.7624 239.371 43.037 234.675 50.075C229.98 57.113 223.306 62.5984 215.499 65.8375C207.691 69.0767 199.099 69.9242 190.81 68.2729C182.685 66.6541 175.208 62.7052 169.287 56.9116L199.5 26.651ZM168.578 -3.61056L198.438 26.2957C194.545 30.1045 189.961 33.1346 184.93 35.2216C179.746 37.3723 174.189 38.4793 168.578 38.4793C162.967 38.4793 157.41 37.3723 152.226 35.2216C147.196 33.1347 142.611 30.1045 138.718 26.2957L168.578 -3.61056Z" stroke="#487FFF"/>
</mask>
<g mask="url(#mask0_74_109)">
<rect x="-1262" y="-83.6108" width="3803.52" height="233.14" fill="url(#paint0_linear_74_109)"/>
</g>
</g>
<defs>
<linearGradient id="paint0_linear_74_109" x1="2541.52" y1="36.2884" x2="-1262" y2="36.2894" gradientUnits="userSpaceOnUse">
<stop/>
<stop offset="1" stop-opacity="0"/>
</linearGradient>
</defs>
</svg>
