<svg width="156" height="50" viewBox="0 0 156 50" fill="none" xmlns="http://www.w3.org/2000/svg">
<path d="M70.5781 22.348C70.5099 21.7429 70.2287 21.2741 69.7344 20.9418C69.2401 20.6051 68.6179 20.4368 67.8679 20.4368C67.331 20.4368 66.8665 20.522 66.4744 20.6925C66.0824 20.8587 65.7777 21.0888 65.5604 21.3828C65.3473 21.6726 65.2408 22.0028 65.2408 22.3736C65.2408 22.6847 65.3132 22.9531 65.4581 23.179C65.6072 23.4048 65.8011 23.5945 66.0398 23.7479C66.2827 23.897 66.5426 24.0227 66.8196 24.125C67.0966 24.223 67.3629 24.304 67.6186 24.3679L68.897 24.7003C69.3146 24.8026 69.7429 24.9411 70.1818 25.1158C70.6207 25.2905 71.0277 25.5206 71.4027 25.8061C71.7777 26.0916 72.0803 26.4453 72.3104 26.8672C72.5447 27.2891 72.6619 27.794 72.6619 28.3821C72.6619 29.1236 72.4702 29.782 72.0866 30.3572C71.7074 30.9325 71.1555 31.3864 70.4311 31.7188C69.7109 32.0511 68.8395 32.2173 67.8168 32.2173C66.8366 32.2173 65.9886 32.0618 65.2727 31.7507C64.5568 31.4396 63.9964 30.9986 63.5916 30.4276C63.1868 29.8523 62.9631 29.1705 62.9205 28.3821H64.902C64.9403 28.8551 65.0938 29.2493 65.3622 29.5646C65.6349 29.8757 65.9822 30.108 66.4041 30.2614C66.8303 30.4105 67.2969 30.4851 67.804 30.4851C68.3622 30.4851 68.8587 30.3977 69.2933 30.223C69.7322 30.044 70.0774 29.7969 70.3288 29.4815C70.5803 29.1619 70.706 28.7891 70.706 28.3629C70.706 27.9751 70.5952 27.6577 70.3736 27.4105C70.1563 27.1634 69.8601 26.9588 69.4851 26.7969C69.1143 26.6349 68.6946 26.4922 68.2259 26.3686L66.679 25.9467C65.6307 25.6612 64.7997 25.2415 64.1861 24.6875C63.5767 24.1335 63.272 23.4006 63.272 22.4886C63.272 21.7344 63.4766 21.076 63.8857 20.5135C64.2947 19.951 64.8487 19.5142 65.5476 19.2031C66.2464 18.8878 67.0348 18.7301 67.9126 18.7301C68.799 18.7301 69.581 18.8857 70.2585 19.1967C70.9403 19.5078 71.4773 19.9361 71.8693 20.4815C72.2614 21.0227 72.4659 21.6449 72.483 22.348H70.5781ZM77.726 32.2173C77.1039 32.2173 76.5414 32.1023 76.0385 31.8722C75.5357 31.6378 75.1373 31.299 74.8432 30.8558C74.5534 30.4126 74.4086 29.8693 74.4086 29.2259C74.4086 28.6719 74.5151 28.2159 74.7282 27.858C74.9412 27.5 75.2289 27.2166 75.5911 27.0078C75.9533 26.799 76.3581 26.6413 76.8056 26.5348C77.253 26.4283 77.709 26.3473 78.1735 26.2919C78.7615 26.2237 79.2388 26.1683 79.6053 26.1257C79.9718 26.0788 80.2381 26.0043 80.4043 25.902C80.5705 25.7997 80.6536 25.6335 80.6536 25.4034V25.3587C80.6536 24.8004 80.4959 24.3679 80.1806 24.0611C79.8695 23.7543 79.405 23.6009 78.7871 23.6009C78.1436 23.6009 77.6365 23.7436 77.2658 24.0291C76.8993 24.3104 76.6458 24.6236 76.5051 24.9688L74.709 24.5597C74.9221 23.9631 75.2331 23.4815 75.6422 23.1151C76.0556 22.7443 76.5307 22.4759 77.0676 22.3097C77.6046 22.1392 78.1692 22.054 78.7615 22.054C79.1536 22.054 79.5691 22.1009 80.008 22.1946C80.4512 22.2841 80.8645 22.4503 81.248 22.6932C81.6358 22.9361 81.9533 23.2834 82.2005 23.7351C82.4476 24.1825 82.5712 24.7642 82.5712 25.4801V32H80.7047V30.6577H80.628C80.5044 30.9048 80.3191 31.1477 80.0719 31.3864C79.8248 31.625 79.5073 31.8232 79.1195 31.9808C78.7317 32.1385 78.2672 32.2173 77.726 32.2173ZM78.1415 30.6832C78.6699 30.6832 79.1216 30.5788 79.4966 30.37C79.8759 30.1612 80.1635 29.8885 80.3596 29.5518C80.5598 29.2109 80.66 28.8466 80.66 28.4588V27.1932C80.5918 27.2614 80.4597 27.3253 80.2637 27.3849C80.0719 27.4403 79.8525 27.4893 79.6053 27.532C79.3581 27.5703 79.1174 27.6065 78.883 27.6406C78.6486 27.6705 78.4526 27.696 78.2949 27.7173C77.9242 27.7642 77.5854 27.843 77.2786 27.9538C76.976 28.0646 76.7331 28.2244 76.5499 28.4332C76.3709 28.6378 76.2814 28.9105 76.2814 29.2514C76.2814 29.7244 76.4561 30.0824 76.8056 30.3253C77.155 30.5639 77.6003 30.6832 78.1415 30.6832ZM87.0281 26.1705V32H85.1168V22.1818H86.9513V23.7798H87.0728C87.2987 23.2599 87.6523 22.8423 88.1339 22.527C88.6197 22.2116 89.2312 22.054 89.9684 22.054C90.6374 22.054 91.2234 22.1946 91.7262 22.4759C92.229 22.7528 92.619 23.1662 92.896 23.7159C93.1729 24.2656 93.3114 24.9453 93.3114 25.755V32H91.4002V25.9851C91.4002 25.2734 91.2148 24.7173 90.8441 24.3168C90.4734 23.9119 89.9641 23.7095 89.3164 23.7095C88.8732 23.7095 88.479 23.8054 88.1339 23.9972C87.793 24.1889 87.5224 24.4702 87.3221 24.8409C87.1261 25.2074 87.0281 25.6506 87.0281 26.1705ZM97.7859 18.9091V32H95.8746V18.9091H97.7859ZM101.565 35.6818C101.28 35.6818 101.02 35.6584 100.785 35.6115C100.551 35.5689 100.376 35.522 100.261 35.4709L100.721 33.9048C101.071 33.9986 101.382 34.0391 101.655 34.0263C101.927 34.0135 102.168 33.9112 102.377 33.7195C102.59 33.5277 102.778 33.2145 102.939 32.7798L103.176 32.1278L99.5836 22.1818H101.629L104.116 29.8011H104.218L106.704 22.1818H108.756L104.71 33.3104C104.523 33.8217 104.284 34.2543 103.994 34.608C103.704 34.9659 103.359 35.2344 102.959 35.4134C102.558 35.5923 102.094 35.6818 101.565 35.6818ZM115.469 32V18.9091H120.263C121.192 18.9091 121.962 19.0625 122.571 19.3693C123.18 19.6719 123.636 20.0831 123.939 20.603C124.241 21.1186 124.393 21.7003 124.393 22.348C124.393 22.8935 124.293 23.3537 124.092 23.7287C123.892 24.0994 123.624 24.3977 123.287 24.6236C122.955 24.8452 122.588 25.0071 122.188 25.1094V25.2372C122.622 25.2585 123.046 25.3991 123.46 25.6591C123.877 25.9148 124.222 26.2791 124.495 26.7521C124.768 27.2251 124.904 27.8004 124.904 28.478C124.904 29.147 124.746 29.7479 124.431 30.2805C124.12 30.8089 123.638 31.2287 122.987 31.5398C122.335 31.8466 121.501 32 120.487 32H115.469ZM117.445 30.3061H120.295C121.241 30.3061 121.919 30.1229 122.328 29.7564C122.737 29.3899 122.942 28.9318 122.942 28.3821C122.942 27.9687 122.837 27.5895 122.629 27.2443C122.42 26.8991 122.121 26.6243 121.734 26.4197C121.35 26.2152 120.894 26.1129 120.366 26.1129H117.445V30.3061ZM117.445 24.5724H120.091C120.534 24.5724 120.933 24.4872 121.286 24.3168C121.644 24.1463 121.928 23.9077 122.136 23.6009C122.349 23.2898 122.456 22.9233 122.456 22.5014C122.456 21.9602 122.266 21.5064 121.887 21.1399C121.508 20.7734 120.926 20.5902 120.142 20.5902H117.445V24.5724ZM127.093 32V22.1818H129.005V32H127.093ZM128.059 20.6669C127.726 20.6669 127.441 20.5561 127.202 20.3345C126.968 20.1087 126.85 19.8402 126.85 19.5291C126.85 19.2138 126.968 18.9453 127.202 18.7237C127.441 18.4979 127.726 18.3849 128.059 18.3849C128.391 18.3849 128.674 18.4979 128.909 18.7237C129.147 18.9453 129.267 19.2138 129.267 19.5291C129.267 19.8402 129.147 20.1087 128.909 20.3345C128.674 20.5561 128.391 20.6669 128.059 20.6669ZM133.487 18.9091V32H131.576V18.9091H133.487ZM136.058 32V22.1818H137.969V32H136.058ZM137.023 20.6669C136.691 20.6669 136.406 20.5561 136.167 20.3345C135.933 20.1087 135.815 19.8402 135.815 19.5291C135.815 19.2138 135.933 18.9453 136.167 18.7237C136.406 18.4979 136.691 18.3849 137.023 18.3849C137.356 18.3849 137.639 18.4979 137.874 18.7237C138.112 18.9453 138.232 19.2138 138.232 19.5291C138.232 19.8402 138.112 20.1087 137.874 20.3345C137.639 20.5561 137.356 20.6669 137.023 20.6669ZM140.541 32V22.1818H142.375V23.7798H142.497C142.701 23.2386 143.036 22.8168 143.5 22.5142C143.965 22.2074 144.521 22.054 145.169 22.054C145.825 22.054 146.374 22.2074 146.818 22.5142C147.265 22.821 147.595 23.2429 147.808 23.7798H147.911C148.145 23.2557 148.518 22.8381 149.029 22.527C149.541 22.2116 150.15 22.054 150.857 22.054C151.748 22.054 152.475 22.3331 153.037 22.8913C153.604 23.4496 153.887 24.2912 153.887 25.4162V32H151.976V25.5952C151.976 24.9304 151.795 24.4489 151.433 24.1506C151.07 23.8523 150.638 23.7031 150.135 23.7031C149.513 23.7031 149.029 23.8949 148.684 24.2784C148.339 24.6577 148.166 25.1456 148.166 25.7422V32H146.262V25.4737C146.262 24.9411 146.095 24.5128 145.763 24.1889C145.431 23.8651 144.998 23.7031 144.465 23.7031C144.103 23.7031 143.769 23.799 143.462 23.9908C143.159 24.1783 142.914 24.4403 142.727 24.777C142.544 25.1136 142.452 25.5036 142.452 25.9467V32H140.541Z" fill="#646464"/>
<path d="M30.8925 19.0455H19.1074V30.8306H30.8925V19.0455Z" fill="#646464"/>
<path opacity="0.4" d="M14.688 39.6695C17.1187 39.6695 19.1074 37.6808 19.1074 35.2501V30.8307H14.688C12.2573 30.8307 10.2686 32.8194 10.2686 35.2501C10.2686 37.6808 12.2573 39.6695 14.688 39.6695Z" fill="#646464"/>
<path opacity="0.4" d="M14.688 19.0456H19.1074V14.6261C19.1074 12.1955 17.1187 10.2067 14.688 10.2067C12.2573 10.2067 10.2686 12.1955 10.2686 14.6261C10.2686 17.0568 12.2573 19.0456 14.688 19.0456Z" fill="#646464"/>
<path opacity="0.4" d="M30.8925 19.0456H35.3119C37.7426 19.0456 39.7313 17.0568 39.7313 14.6261C39.7313 12.1955 37.7426 10.2067 35.3119 10.2067C32.8812 10.2067 30.8925 12.1955 30.8925 14.6261V19.0456Z" fill="#646464"/>
<path opacity="0.4" d="M35.3119 39.6695C37.7426 39.6695 39.7313 37.6808 39.7313 35.2501C39.7313 32.8194 37.7426 30.8307 35.3119 30.8307H30.8925V35.2501C30.8925 37.6808 32.8812 39.6695 35.3119 39.6695Z" fill="#646464"/>
<path d="M33.3333 25L25 16.6667L16.6667 25L25 33.3334L33.3333 25Z" fill="#646464"/>
<path opacity="0.4" d="M7.29163 28.125C9.01038 29.8438 11.8229 29.8438 13.5416 28.125L16.6666 25L13.5416 21.875C11.8229 20.1563 9.01038 20.1563 7.29163 21.875C5.57288 23.5938 5.57288 26.4063 7.29163 28.125Z" fill="#646464"/>
<path opacity="0.4" d="M21.875 13.5417L25 16.6667L28.125 13.5417C29.8438 11.8229 29.8438 9.01044 28.125 7.29169C26.4063 5.57294 23.5937 5.57294 21.875 7.29169C20.1562 9.01044 20.1562 11.8229 21.875 13.5417Z" fill="#646464"/>
<path opacity="0.4" d="M33.3334 25L36.4584 28.125C38.1771 29.8438 40.9896 29.8438 42.7084 28.125C44.4271 26.4063 44.4271 23.5938 42.7084 21.875C40.9896 20.1563 38.1771 20.1563 36.4584 21.875L33.3334 25Z" fill="#646464"/>
<path opacity="0.4" d="M21.875 42.7083C23.5937 44.4271 26.4063 44.4271 28.125 42.7083C29.8438 40.9896 29.8438 38.1771 28.125 36.4583L25 33.3333L21.875 36.4583C20.1562 38.1771 20.1562 40.9896 21.875 42.7083Z" fill="#646464"/>
</svg>
