<svg width="153" height="50" viewBox="0 0 153 50" fill="none" xmlns="http://www.w3.org/2000/svg">
<path d="M19.1861 17.4419C18.0362 16.292 17.2531 14.8269 16.9358 13.232C16.6186 11.637 16.7814 9.98383 17.4037 8.48143C18.0261 6.97902 19.0799 5.69489 20.432 4.79143C21.7842 3.88796 23.3738 3.40574 25 3.40574C26.6262 3.40574 28.2159 3.88796 29.568 4.79143C30.9202 5.69489 31.974 6.97902 32.5963 8.48143C33.2186 9.98383 33.3815 11.637 33.0642 13.232C32.747 14.8269 31.9639 16.292 30.814 17.4419L25 11.6279L19.1861 17.4419Z" fill="#487FFF"/>
<path d="M17.4419 30.814C16.292 31.9638 14.827 32.7469 13.232 33.0642C11.6371 33.3814 9.98386 33.2186 8.48146 32.5963C6.97905 31.974 5.69492 30.9201 4.79146 29.568C3.888 28.2159 3.40577 26.6262 3.40577 25C3.40577 23.3738 3.888 21.7841 4.79146 20.432C5.69492 19.0799 6.97905 18.026 8.48146 17.4037C9.98386 16.7814 11.6371 16.6186 13.232 16.9358C14.827 17.2531 16.292 18.0362 17.4419 19.186L11.6279 25L17.4419 30.814Z" fill="#487FFF"/>
<path d="M23.2558 25C22.4923 25.7635 21.5859 26.3691 20.5884 26.7823C19.5908 27.1956 18.5216 27.4082 17.4419 27.4082C16.3621 27.4082 15.293 27.1956 14.2954 26.7823C13.2978 26.3691 12.3914 25.7635 11.6279 25L17.4419 19.186L23.2558 25Z" fill="#487FFF"/>
<path d="M26.7442 25C27.5077 24.2365 28.4141 23.6309 29.4117 23.2176C30.4092 22.8044 31.4784 22.5918 32.5582 22.5918C33.6379 22.5918 34.7071 22.8044 35.7047 23.2176C36.7022 23.6309 37.6086 24.2365 38.3721 25L32.5582 30.8139L26.7442 25Z" fill="#487FFF"/>
<path d="M30.814 32.5581C31.9639 33.708 32.747 35.1731 33.0642 36.768C33.3815 38.363 33.2186 40.0162 32.5963 41.5186C31.974 43.021 30.9202 44.3051 29.568 45.2086C28.2159 46.112 26.6262 46.5943 25 46.5943C23.3738 46.5943 21.7842 46.112 20.432 45.2086C19.0799 44.3051 18.0261 43.021 17.4037 41.5186C16.7814 40.0162 16.6186 38.363 16.9358 36.768C17.2531 35.1731 18.0362 33.708 19.1861 32.5581L25 38.3721L30.814 32.5581Z" fill="#487FFF"/>
<path d="M32.5582 19.186C33.7081 18.0362 35.1731 17.2531 36.768 16.9358C38.363 16.6186 40.0162 16.7814 41.5186 17.4037C43.021 18.026 44.3051 19.0799 45.2086 20.432C46.1121 21.7841 46.5943 23.3738 46.5943 25C46.5943 26.6262 46.1121 28.2159 45.2086 29.568C44.3051 30.9201 43.021 31.974 41.5186 32.5963C40.0162 33.2186 38.363 33.3814 36.768 33.0642C35.1731 32.7469 33.7081 31.9638 32.5582 30.8139L38.3721 25L32.5582 19.186Z" fill="#487FFF"/>
<path d="M67.2816 34.3438C65.9002 34.3438 64.657 34.107 63.552 33.6334C62.4469 33.1401 61.5787 32.4494 60.9472 31.5614C60.3157 30.6734 60 29.6374 60 28.4534H63.6112C63.6901 29.3414 64.0354 30.0716 64.6472 30.6438C65.2786 31.2161 66.1568 31.5022 67.2816 31.5022C68.4458 31.5022 69.3535 31.226 70.0047 30.6734C70.6559 30.1012 70.9815 29.371 70.9815 28.4831C70.9815 27.7924 70.7743 27.23 70.3599 26.7959C69.9653 26.3617 69.4621 26.0263 68.8503 25.7895C68.2584 25.5527 67.4296 25.2961 66.364 25.0199C65.0221 24.6647 63.9269 24.3095 63.0784 23.9543C62.2496 23.5793 61.5392 23.0071 60.9472 22.2375C60.3552 21.4679 60.0592 20.4418 60.0592 19.1591C60.0592 17.9751 60.3552 16.9391 60.9472 16.0511C61.5392 15.1631 62.368 14.4823 63.4336 14.0087C64.4992 13.5351 65.7325 13.2983 67.1336 13.2983C69.1266 13.2983 70.7546 13.8015 72.0175 14.8079C73.3002 15.7946 74.0106 17.1562 74.1487 18.8927H70.4191C70.3599 18.1428 70.0047 17.5015 69.3535 16.9687C68.7023 16.4359 67.844 16.1695 66.7784 16.1695C65.8114 16.1695 65.0221 16.4162 64.4104 16.9095C63.7986 17.4028 63.4928 18.1132 63.4928 19.0407C63.4928 19.6722 63.6802 20.1951 64.0552 20.6095C64.4498 21.0042 64.9432 21.3199 65.5352 21.5567C66.1272 21.7935 66.9362 22.05 67.9624 22.3263C69.3239 22.7012 70.429 23.0761 71.2775 23.4511C72.1458 23.826 72.8759 24.4081 73.4679 25.1975C74.0796 25.9671 74.3855 27.0031 74.3855 28.3055C74.3855 29.3513 74.0994 30.338 73.5271 31.2654C72.9746 32.1929 72.1557 32.9428 71.0703 33.515C70.0047 34.0675 68.7418 34.3438 67.2816 34.3438Z" fill="#EFEFEF"/>
<path d="M93.3151 25.5823C93.3151 26.194 93.2756 26.7465 93.1967 27.2399H80.7351C80.8338 28.5422 81.3173 29.5881 82.1855 30.3774C83.0538 31.1668 84.1194 31.5614 85.3823 31.5614V34.403C83.8234 34.403 82.4223 34.0577 81.1791 33.367C79.9557 32.6566 78.9887 31.67 78.2784 30.407C77.5877 29.1244 77.2424 27.6444 77.2424 25.9671C77.2424 24.2897 77.5778 22.8196 78.2488 21.5567C78.9394 20.274 79.8965 19.2874 81.1199 18.5967C82.3631 17.906 83.7839 17.5607 85.3823 17.5607C86.9215 17.5607 88.293 17.8962 89.4967 18.5671C90.7004 19.238 91.6377 20.1852 92.3087 21.4087C92.9796 22.6124 93.3151 24.0036 93.3151 25.5823ZM89.7927 24.5167C89.7729 23.2735 89.329 22.277 88.4607 21.5271C87.5924 20.7772 86.517 20.4023 85.2343 20.4023C84.0701 20.4023 83.0735 20.7772 82.2447 21.5271C81.4159 22.2572 80.9226 23.2537 80.7647 24.5167H89.7927Z" fill="#EFEFEF"/>
<path d="M100.01 17.8271C100.01 19.9534 101.362 18.8434 102.349 18.3303C103.335 17.8172 104.45 17.5607 105.693 17.5607C107.114 17.5607 108.407 17.9159 109.571 18.6263C110.755 19.317 111.682 20.2938 112.353 21.5567C113.024 22.8196 113.36 24.27 113.36 25.9079C113.36 27.5457 113.024 29.0158 112.353 30.3182C111.682 31.6009 110.755 32.6073 109.571 33.3374C108.407 34.0478 107.114 34.403 105.693 34.403C104.45 34.403 103.345 34.1563 102.378 33.663C101.411 33.15 100.622 32.5185 100.01 31.7686V41.8918H96.6358V17.8271H100.01ZM109.926 25.9079C109.926 24.7831 109.689 23.8161 109.216 23.0071C108.762 22.1783 108.15 21.5567 107.381 21.1423C106.631 20.7082 105.822 20.4911 104.953 20.4911C104.105 20.4911 103.296 20.7082 102.526 21.1423C101.776 21.5764 101.165 22.2079 100.691 23.0367C100.237 23.8655 100.01 24.8423 100.01 25.9671C100.01 27.0919 100.237 28.0785 100.691 28.927C101.165 29.7558 101.776 30.3873 102.526 30.8214C103.296 31.2556 104.105 31.4726 104.953 31.4726C105.822 31.4726 106.631 31.2556 107.381 30.8214C108.15 30.3676 108.762 29.7164 109.216 28.8678C109.689 28.0193 109.926 27.0327 109.926 25.9079Z" fill="#EFEFEF"/>
<path d="M123.268 17.5607C124.531 17.5607 125.646 17.8172 126.613 18.3303C127.599 18.8236 128.369 19.4452 128.921 20.1951V17.8271L132.325 20.1951V34.403C132.325 35.9027 132.01 37.2347 131.378 38.399C130.747 39.583 129.829 40.5104 128.625 41.1814C127.441 41.8523 126.021 42.1878 124.363 42.1878C122.153 42.1878 120.318 41.6648 118.857 40.619C117.397 39.5928 116.568 38.1918 116.371 36.4158H119.716C119.972 37.2643 120.515 37.9451 121.344 38.4582C122.192 38.991 123.199 39.2574 124.363 39.2574C125.725 39.2574 126.82 38.843 127.649 38.0142C128.497 37.1854 128.921 35.9817 128.921 34.403V31.6798C128.349 32.4494 127.57 33.1006 126.583 33.6334C125.616 34.1465 124.511 34.403 123.268 34.403C121.847 34.403 120.545 34.0478 119.361 33.3374C118.196 32.6073 117.269 31.6009 116.578 30.3182C115.907 29.0158 115.572 27.5457 115.572 25.9079C115.572 24.27 115.907 22.8196 116.578 21.5567C117.269 20.2938 118.196 19.317 119.361 18.6263C120.545 17.9159 121.847 17.5607 123.268 17.5607ZM128.921 25.9671C128.921 24.8423 128.685 23.8655 128.211 23.0367C127.757 22.2079 127.155 21.5764 126.405 21.1423C125.655 20.7082 124.846 20.4911 123.978 20.4911C123.11 20.4911 122.301 20.7082 121.551 21.1423C120.801 21.5567 120.189 22.1783 119.716 23.0071C119.262 23.8161 119.035 24.7831 119.035 25.9079C119.035 27.0327 119.262 28.0193 119.716 28.8678C120.189 29.7164 120.801 30.3676 121.551 30.8214C122.321 31.2556 123.13 31.4726 123.978 31.4726C124.846 31.4726 125.655 31.2556 126.405 30.8214C127.155 30.3873 127.757 29.7558 128.211 28.927C128.685 28.0785 128.921 27.0919 128.921 25.9671Z" fill="#EFEFEF"/>
<path d="M140.132 17.8271V34.1366H136.757V17.8271H140.132Z" fill="#EFEFEF"/>
<path d="M148.499 20.5799V29.6078C148.499 30.2196 148.637 30.6636 148.913 30.9398C149.209 31.1964 149.703 31.3246 150.393 31.3246H152.465V34.1366H149.801C148.282 34.1366 147.118 33.7814 146.308 33.071C145.499 32.3606 145.095 31.2062 145.095 29.6078V20.5799H143.171V17.8271H145.095V13.5055H148.499V17.8271H152.465V20.5799H148.499Z" fill="#EFEFEF"/>
<path d="M136.935 15.0447C137.349 15.4591 137.862 15.6663 138.474 15.6663C139.066 15.6663 139.569 15.4591 139.984 15.0447C140.398 14.6303 140.605 14.1173 140.605 13.5056L138.474 13.5055L136.313 13.5056C136.313 14.1173 136.521 14.6303 136.935 15.0447Z" fill="#487FFF"/>
</svg>
