<svg width="44" height="44" viewBox="0 0 44 44" fill="none" xmlns="http://www.w3.org/2000/svg">
<path d="M16.1861 14.4419C15.0362 13.292 14.2531 11.8269 13.9358 10.232C13.6186 8.63703 13.7814 6.98383 14.4037 5.48143C15.0261 3.97902 16.0799 2.69489 17.432 1.79143C18.7842 0.887963 20.3738 0.405741 22 0.405741C23.6262 0.405741 25.2159 0.887963 26.568 1.79143C27.9202 2.69489 28.974 3.97902 29.5963 5.48143C30.2186 6.98383 30.3815 8.63704 30.0642 10.232C29.747 11.8269 28.9639 13.292 27.814 14.4419L22 8.62791L16.1861 14.4419Z" fill="#487FFF"/>
<path d="M14.4419 27.814C13.292 28.9638 11.827 29.7469 10.232 30.0642C8.63707 30.3814 6.98386 30.2186 5.48146 29.5963C3.97905 28.974 2.69492 27.9201 1.79146 26.568C0.887995 25.2159 0.405772 23.6262 0.405775 22C0.405774 20.3738 0.887995 18.7841 1.79146 17.432C2.69492 16.0799 3.97905 15.026 5.48146 14.4037C6.98386 13.7814 8.63707 13.6186 10.232 13.9358C11.827 14.2531 13.292 15.0362 14.4419 16.186L8.62795 22L14.4419 27.814Z" fill="#487FFF"/>
<path d="M20.2558 22C19.4923 22.7635 18.5859 23.3691 17.5884 23.7823C16.5908 24.1956 15.5216 24.4082 14.4419 24.4082C13.3621 24.4082 12.293 24.1956 11.2954 23.7823C10.2978 23.3691 9.39145 22.7635 8.62795 22L14.4419 16.186L20.2558 22Z" fill="#487FFF"/>
<path d="M23.7442 22C24.5077 21.2365 25.4141 20.6309 26.4117 20.2176C27.4092 19.8044 28.4784 19.5918 29.5582 19.5918C30.6379 19.5918 31.7071 19.8044 32.7047 20.2176C33.7022 20.6309 34.6086 21.2365 35.3721 22L29.5582 27.8139L23.7442 22Z" fill="#487FFF"/>
<path d="M27.814 29.5581C28.9639 30.708 29.747 32.1731 30.0642 33.768C30.3815 35.363 30.2186 37.0162 29.5963 38.5186C28.974 40.021 27.9202 41.3051 26.568 42.2086C25.2159 43.112 23.6262 43.5943 22 43.5943C20.3738 43.5943 18.7842 43.112 17.432 42.2086C16.0799 41.3051 15.0261 40.021 14.4037 38.5186C13.7814 37.0162 13.6186 35.363 13.9358 33.768C14.2531 32.1731 15.0362 30.708 16.1861 29.5581L22 35.3721L27.814 29.5581Z" fill="#487FFF"/>
<path d="M29.5582 16.186C30.7081 15.0362 32.1731 14.2531 33.768 13.9358C35.363 13.6186 37.0162 13.7814 38.5186 14.4037C40.021 15.026 41.3051 16.0799 42.2086 17.432C43.1121 18.7841 43.5943 20.3738 43.5943 22C43.5943 23.6262 43.1121 25.2159 42.2086 26.568C41.3051 27.9201 40.021 28.974 38.5186 29.5963C37.0162 30.2186 35.363 30.3814 33.768 30.0642C32.1731 29.7469 30.7081 28.9638 29.5582 27.8139L35.3721 22L29.5582 16.186Z" fill="#487FFF"/>
</svg>
