<svg width="173" height="142" viewBox="0 0 173 142" fill="none" xmlns="http://www.w3.org/2000/svg">
<path d="M98.917 40.2661H74.0008V65.1823H98.917V40.2661Z" fill="#7C5CFC"/>
<path opacity="0.4" d="M64.6572 83.8698C69.7962 83.8698 74.0008 79.6652 74.0008 74.5262V65.1826H64.6572C59.5182 65.1826 55.3136 69.3872 55.3136 74.5262C55.3136 79.6652 59.5182 83.8698 64.6572 83.8698Z" fill="#7C5CFC"/>
<path opacity="0.4" d="M64.6572 40.2663H74.0008V30.9227C74.0008 25.7837 69.7962 21.5791 64.6572 21.5791C59.5182 21.5791 55.3136 25.7837 55.3136 30.9227C55.3136 36.0617 59.5182 40.2663 64.6572 40.2663Z" fill="#7C5CFC"/>
<path opacity="0.4" d="M98.917 40.2663H108.261C113.4 40.2663 117.604 36.0617 117.604 30.9227C117.604 25.7837 113.4 21.5791 108.261 21.5791C103.122 21.5791 98.917 25.7837 98.917 30.9227V40.2663Z" fill="#7C5CFC"/>
<path opacity="0.4" d="M108.261 83.8698C113.4 83.8698 117.604 79.6652 117.604 74.5262C117.604 69.3872 113.4 65.1826 108.261 65.1826H98.917V74.5262C98.917 79.6652 103.122 83.8698 108.261 83.8698Z" fill="#7C5CFC"/>
<path d="M104.077 52.8553L86.4589 35.2368L68.8404 52.8553L86.4589 70.4737L104.077 52.8553Z" fill="#7C5CFC"/>
<path opacity="0.4" d="M49.0197 59.4623C52.6535 63.0961 58.5997 63.0961 62.2335 59.4623L68.8404 52.8554L62.2335 46.2485C58.5997 42.6147 52.6535 42.6147 49.0197 46.2485C45.3859 49.8823 45.3859 55.8285 49.0197 59.4623Z" fill="#7C5CFC"/>
<path opacity="0.4" d="M79.8519 28.6298L86.4589 35.2367L93.0658 28.6298C96.6996 24.996 96.6996 19.0498 93.0658 15.416C89.432 11.7822 83.4858 11.7822 79.8519 15.416C76.2181 19.0498 76.2181 24.996 79.8519 28.6298Z" fill="#7C5CFC"/>
<path opacity="0.4" d="M104.077 52.8554L110.684 59.4623C114.318 63.0961 120.264 63.0961 123.898 59.4623C127.532 55.8285 127.532 49.8823 123.898 46.2485C120.264 42.6147 114.318 42.6147 110.684 46.2485L104.077 52.8554Z" fill="#7C5CFC"/>
<path opacity="0.4" d="M79.8519 90.2944C83.4858 93.9282 89.432 93.9282 93.0658 90.2944C96.6996 86.6606 96.6996 80.7143 93.0658 77.0805L86.4589 70.4736L79.8519 77.0805C76.2181 80.7143 76.2181 86.6606 79.8519 90.2944Z" fill="#7C5CFC"/>
<path d="M8.94315 135.882C7.48599 135.882 6.16232 135.626 4.97212 135.115C3.78193 134.603 2.75858 133.88 1.90209 132.946C1.05672 132 0.422686 130.888 0 129.609L3.92097 128.157C4.42152 129.225 5.11673 130.104 6.00659 130.793C6.90758 131.472 7.9198 131.811 9.04326 131.811C10.2335 131.811 11.1789 131.561 11.8797 131.06C12.5916 130.56 12.9475 129.831 12.9475 128.875C12.9475 128.218 12.7362 127.673 12.3135 127.239C11.9019 126.794 11.3402 126.416 10.6283 126.105C9.92756 125.782 9.13224 125.471 8.24238 125.17C7.38588 124.881 6.52383 124.559 5.65621 124.203C4.78859 123.847 3.99327 123.413 3.27026 122.901C2.54724 122.379 1.96327 121.722 1.51833 120.932C1.08452 120.143 0.867619 119.175 0.867619 118.029C0.867619 116.884 1.17351 115.832 1.78529 114.876C2.39707 113.919 3.28138 113.157 4.4382 112.59C5.60615 112.012 7.01881 111.722 8.67619 111.722C10.0332 111.722 11.2346 111.956 12.2801 112.423C13.3369 112.879 14.21 113.502 14.8997 114.292C15.5893 115.082 16.0676 115.977 16.3346 116.978L12.4637 118.263C12.1522 117.562 11.6739 116.978 11.0288 116.511C10.3947 116.033 9.53268 115.794 8.4426 115.794C7.41925 115.794 6.62394 115.994 6.05665 116.394C5.48936 116.795 5.20571 117.362 5.20571 118.096C5.20571 118.597 5.39481 119.025 5.773 119.381C6.16232 119.726 6.67955 120.037 7.3247 120.315C7.98098 120.593 8.72068 120.877 9.54381 121.166C10.467 121.478 11.3847 121.833 12.2968 122.234C13.2201 122.623 14.0543 123.102 14.7996 123.669C15.556 124.236 16.1622 124.942 16.6182 125.788C17.0743 126.622 17.3023 127.645 17.3023 128.858C17.3023 130.348 16.9297 131.616 16.1844 132.662C15.4503 133.708 14.4548 134.508 13.1978 135.065C11.9409 135.61 10.5227 135.882 8.94315 135.882Z" fill="#F0F0F0"/>
<path d="M26.672 135.882C24.8144 135.882 23.3405 135.382 22.2505 134.381C21.1715 133.368 20.632 132 20.632 130.276C20.632 129.164 20.9101 128.19 21.4663 127.356C22.0336 126.511 22.8177 125.86 23.8188 125.404C24.8311 124.937 26.0101 124.703 27.3561 124.703C28.1013 124.703 28.8188 124.776 29.5084 124.92C30.2092 125.054 30.821 125.248 31.3438 125.504V124.436C31.3438 123.48 31.0713 122.762 30.5262 122.284C29.9923 121.795 29.2025 121.55 28.1569 121.55C27.3227 121.55 26.4662 121.7 25.5875 122C24.7087 122.301 23.8188 122.746 22.9179 123.335L21.6665 120.048C22.6453 119.403 23.7354 118.908 24.9367 118.563C26.1381 118.207 27.3505 118.029 28.5741 118.029C30.8655 118.029 32.5785 118.574 33.713 119.664C34.8476 120.743 35.4149 122.356 35.4149 124.503V135.482H31.3438V134.114C30.7654 134.692 30.0757 135.131 29.2748 135.432C28.4851 135.732 27.6175 135.882 26.672 135.882ZM27.6397 132.362C28.3294 132.362 28.9912 132.228 29.6252 131.961C30.2704 131.683 30.8432 131.294 31.3438 130.793V128.774C30.8655 128.541 30.3316 128.363 29.742 128.24C29.1636 128.107 28.5852 128.04 28.0068 128.04C26.9723 128.04 26.1547 128.24 25.5541 128.641C24.9645 129.03 24.6698 129.575 24.6698 130.276C24.6698 130.932 24.9312 131.444 25.454 131.811C25.9768 132.178 26.7053 132.362 27.6397 132.362Z" fill="#F0F0F0"/>
<path d="M40.4037 135.482V118.43H44.575V120.065C45.12 119.386 45.7707 118.88 46.5271 118.547C47.2946 118.202 48.1678 118.029 49.1466 118.029C51.0487 118.029 52.517 118.619 53.5515 119.798C54.5859 120.966 55.1032 122.651 55.1032 124.853V135.482H50.9486V126.138C50.9486 124.703 50.6983 123.658 50.1978 123.001C49.7084 122.334 48.9409 122 47.8953 122C46.7607 122 45.9209 122.334 45.3758 123.001C44.8419 123.658 44.575 124.681 44.575 126.071V135.482H40.4037Z" fill="#F0F0F0"/>
<path d="M60.3188 135.482V113.274L64.49 111.389V135.482H60.3188Z" fill="#F0F0F0"/>
<path d="M71.9988 141.956L74.585 135.181L68.1946 118.43H72.4827L76.2034 128.407C76.3035 128.641 76.3981 128.897 76.4871 129.175C76.576 129.453 76.6595 129.731 76.7373 130.009C76.8041 129.731 76.8819 129.459 76.9709 129.192C77.071 128.913 77.1711 128.652 77.2713 128.407L80.992 118.43H85.28L76.3035 141.956H71.9988Z" fill="#F0F0F0"/>
<path d="M97.3386 135.482V112.123H107.416C109.318 112.123 110.82 112.429 111.921 113.04C113.022 113.641 113.807 114.425 114.274 115.393C114.741 116.35 114.975 117.351 114.975 118.396C114.975 119.442 114.747 120.399 114.291 121.266C113.834 122.123 113.089 122.785 112.055 123.252C112.9 123.552 113.595 123.986 114.14 124.553C114.697 125.109 115.103 125.743 115.358 126.455C115.625 127.156 115.759 127.868 115.759 128.591C115.759 129.414 115.62 130.237 115.342 131.06C115.075 131.872 114.635 132.612 114.024 133.279C113.412 133.947 112.6 134.481 111.588 134.881C110.586 135.282 109.352 135.482 107.883 135.482H97.3386ZM101.66 131.427H108.167C109.001 131.427 109.652 131.283 110.119 130.994C110.598 130.704 110.931 130.343 111.12 129.909C111.321 129.464 111.421 129.025 111.421 128.591C111.421 128.057 111.304 127.551 111.07 127.073C110.848 126.583 110.431 126.183 109.819 125.871C109.218 125.56 108.345 125.404 107.199 125.404H101.66V131.427ZM101.66 121.516H106.882C108.15 121.516 109.085 121.272 109.685 120.782C110.297 120.282 110.603 119.62 110.603 118.797C110.603 118.374 110.525 117.963 110.37 117.562C110.214 117.151 109.913 116.811 109.469 116.544C109.024 116.277 108.367 116.144 107.5 116.144H101.66V121.516Z" fill="#F0F0F0"/>
<path d="M120.245 135.482V118.43H124.416V135.482H120.245ZM122.33 116.294C121.663 116.294 121.085 116.055 120.595 115.577C120.117 115.087 119.878 114.509 119.878 113.841C119.878 113.174 120.117 112.607 120.595 112.139C121.073 111.661 121.652 111.422 122.33 111.422C123.031 111.422 123.615 111.656 124.082 112.123C124.549 112.59 124.783 113.163 124.783 113.841C124.783 114.52 124.544 115.098 124.066 115.577C123.598 116.055 123.02 116.294 122.33 116.294Z" fill="#F0F0F0"/>
<path d="M129.829 135.482V113.274L134 111.389V135.482H129.829Z" fill="#F0F0F0"/>
<path d="M139.406 135.482V118.43H143.578V135.482H139.406ZM141.492 116.294C140.825 116.294 140.246 116.055 139.757 115.577C139.278 115.087 139.039 114.509 139.039 113.841C139.039 113.174 139.278 112.607 139.757 112.139C140.235 111.661 140.813 111.422 141.492 111.422C142.193 111.422 142.777 111.656 143.244 112.123C143.711 112.59 143.945 113.163 143.945 113.841C143.945 114.52 143.706 115.098 143.227 115.577C142.76 116.055 142.182 116.294 141.492 116.294Z" fill="#F0F0F0"/>
<path d="M148.823 135.482V118.43H152.995V120.015C153.54 119.325 154.152 118.825 154.83 118.513C155.52 118.191 156.298 118.029 157.166 118.029C158.178 118.029 159.046 118.235 159.769 118.647C160.492 119.058 161.054 119.659 161.454 120.449C162.021 119.67 162.75 119.075 163.64 118.663C164.53 118.241 165.536 118.029 166.66 118.029C168.751 118.029 170.33 118.591 171.398 119.714C172.466 120.838 173 122.506 173 124.72V135.482H168.845V126.155C168.845 124.731 168.612 123.686 168.145 123.018C167.677 122.34 166.954 122 165.976 122C165.308 122 164.752 122.15 164.307 122.451C163.873 122.751 163.545 123.207 163.323 123.819C163.1 124.42 162.989 125.182 162.989 126.105V135.482H158.834V126.155C158.834 124.72 158.606 123.669 158.15 123.001C157.694 122.334 156.971 122 155.981 122C154.969 122 154.218 122.328 153.729 122.985C153.239 123.641 152.995 124.659 152.995 126.038V135.482H148.823Z" fill="#F0F0F0"/>
</svg>
