<svg width="297" height="53" viewBox="0 0 297 53" fill="none" xmlns="http://www.w3.org/2000/svg">
<path d="M73.6721 19.332C75.5121 19.9147 76.9535 20.896 77.9961 22.276C79.0388 23.6254 79.5601 25.2967 79.5601 27.29C79.5601 30.1114 78.4561 32.2887 76.2481 33.8221C74.0708 35.3247 70.8815 36.0761 66.6801 36.0761H50.0281V3.87598H65.7601C69.6855 3.87598 72.6908 4.62731 74.7761 6.12998C76.8921 7.63265 77.9501 9.67199 77.9501 12.248C77.9501 13.812 77.5668 15.2073 76.8001 16.434C76.0641 17.6607 75.0215 18.6267 73.6721 19.332ZM57.4341 9.48799V17.078H64.8401C66.6801 17.078 68.0755 16.756 69.0261 16.112C69.9768 15.468 70.4521 14.5173 70.4521 13.26C70.4521 12.0027 69.9768 11.0673 69.0261 10.454C68.0755 9.80999 66.6801 9.48799 64.8401 9.48799H57.4341ZM66.1281 30.464C68.0908 30.464 69.5628 30.142 70.5441 29.498C71.5561 28.854 72.0621 27.8574 72.0621 26.508C72.0621 23.84 70.0841 22.506 66.1281 22.506H57.4341V30.464H66.1281Z" fill="#315BF3"/>
<path d="M96.472 36.4441C93.8653 36.4441 91.5193 35.9074 89.434 34.8341C87.3793 33.73 85.7693 32.212 84.604 30.28C83.4387 28.348 82.856 26.1554 82.856 23.702C82.856 21.2487 83.4387 19.056 84.604 17.124C85.7693 15.192 87.3793 13.6893 89.434 12.616C91.5193 11.512 93.8653 10.96 96.472 10.96C99.0787 10.96 101.409 11.512 103.464 12.616C105.519 13.6893 107.129 15.192 108.294 17.124C109.459 19.056 110.042 21.2487 110.042 23.702C110.042 26.1554 109.459 28.348 108.294 30.28C107.129 32.212 105.519 33.73 103.464 34.8341C101.409 35.9074 99.0787 36.4441 96.472 36.4441ZM96.472 30.556C98.312 30.556 99.8147 29.9427 100.98 28.716C102.176 27.4587 102.774 25.7874 102.774 23.702C102.774 21.6167 102.176 19.9607 100.98 18.734C99.8147 17.4767 98.312 16.848 96.472 16.848C94.632 16.848 93.114 17.4767 91.918 18.734C90.722 19.9607 90.124 21.6167 90.124 23.702C90.124 25.7874 90.722 27.4587 91.918 28.716C93.114 29.9427 94.632 30.556 96.472 30.556Z" fill="#315BF3"/>
<path d="M126.615 36.4441C124.008 36.4441 121.662 35.9074 119.577 34.8341C117.522 33.73 115.912 32.212 114.747 30.28C113.581 28.348 112.999 26.1554 112.999 23.702C112.999 21.2487 113.581 19.056 114.747 17.124C115.912 15.192 117.522 13.6893 119.577 12.616C121.662 11.512 124.008 10.96 126.615 10.96C129.221 10.96 131.552 11.512 133.607 12.616C135.661 13.6893 137.271 15.192 138.437 17.124C139.602 19.056 140.185 21.2487 140.185 23.702C140.185 26.1554 139.602 28.348 138.437 30.28C137.271 32.212 135.661 33.73 133.607 34.8341C131.552 35.9074 129.221 36.4441 126.615 36.4441ZM126.615 30.556C128.455 30.556 129.957 29.9427 131.123 28.716C132.319 27.4587 132.917 25.7874 132.917 23.702C132.917 21.6167 132.319 19.9607 131.123 18.734C129.957 17.4767 128.455 16.848 126.615 16.848C124.775 16.848 123.257 17.4767 122.061 18.734C120.865 19.9607 120.267 21.6167 120.267 23.702C120.267 25.7874 120.865 27.4587 122.061 28.716C123.257 29.9427 124.775 30.556 126.615 30.556Z" fill="#315BF3"/>
<path d="M159.885 34.8801C159.18 35.4014 158.306 35.8001 157.263 36.0761C156.251 36.3214 155.193 36.4441 154.089 36.4441C151.115 36.4441 148.83 35.6927 147.235 34.1901C145.641 32.6874 144.843 30.4794 144.843 27.566V11.88H152.019H158.137V17.4H152.019V27.474C152.019 28.5167 152.28 29.3294 152.801 29.912C153.323 30.464 154.074 30.74 155.055 30.74C156.159 30.74 157.141 30.4334 157.999 29.82L159.885 34.8801Z" fill="#315BF3"/>
<path d="M175.135 36.4441C172.497 36.4441 170.121 35.9074 168.005 34.8341C165.919 33.73 164.279 32.212 163.083 30.28C161.917 28.348 161.335 26.1554 161.335 23.702C161.335 21.2487 161.917 19.056 163.083 17.124C164.279 15.192 165.919 13.6893 168.005 12.616C170.121 11.512 172.497 10.96 175.135 10.96C177.741 10.96 180.011 11.512 181.943 12.616C183.905 13.6893 185.331 15.238 186.221 17.262L180.655 20.252C179.367 17.9827 177.511 16.848 175.089 16.848C173.218 16.848 171.669 17.4613 170.443 18.688C169.216 19.9147 168.603 21.586 168.603 23.702C168.603 25.818 169.216 27.4894 170.443 28.716C171.669 29.9427 173.218 30.556 175.089 30.556C177.542 30.556 179.397 29.4214 180.655 27.152L186.221 30.188C185.331 32.1507 183.905 33.684 181.943 34.7881C180.011 35.8921 177.741 36.4441 175.135 36.4441Z" fill="#315BF3"/>
<path d="M215.154 11.328V36.0761H208.3V33.2241C206.521 35.3707 203.945 36.4441 200.572 36.4441C198.241 36.4441 196.125 35.9227 194.224 34.8801C192.353 33.8374 190.881 32.35 189.808 30.418C188.735 28.486 188.198 26.2474 188.198 23.702C188.198 21.1567 188.735 18.918 189.808 16.986C190.881 15.054 192.353 13.5667 194.224 12.524C196.125 11.4813 198.241 10.96 200.572 10.96C203.731 10.96 206.199 11.9567 207.978 13.95V11.328H215.154ZM201.814 30.556C203.623 30.556 205.126 29.9427 206.322 28.716C207.518 27.4587 208.116 25.7874 208.116 23.702C208.116 21.6167 207.518 19.9607 206.322 18.734C205.126 17.4767 203.623 16.848 201.814 16.848C199.974 16.848 198.456 17.4767 197.26 18.734C196.064 19.9607 195.466 21.6167 195.466 23.702C195.466 25.7874 196.064 27.4587 197.26 28.716C198.456 29.9427 199.974 30.556 201.814 30.556Z" fill="#315BF3"/>
<path d="M253.492 10.96C256.589 10.96 259.043 11.88 260.852 13.72C262.692 15.5293 263.612 18.2587 263.612 21.908V36.0761H256.436V23.012C256.436 21.0494 256.022 19.5927 255.194 18.642C254.397 17.6607 253.247 17.17 251.744 17.17C250.057 17.17 248.723 17.722 247.742 18.826C246.761 19.8993 246.27 21.5094 246.27 23.656V36.0761H239.094V23.012C239.094 19.1173 237.53 17.17 234.402 17.17C232.746 17.17 231.427 17.722 230.446 18.826C229.465 19.8993 228.974 21.5094 228.974 23.656V36.0761H221.798V11.328H228.652V14.18C229.572 13.1373 230.691 12.34 232.01 11.788C233.359 11.236 234.831 10.96 236.426 10.96C238.174 10.96 239.753 11.3127 241.164 12.018C242.575 12.6927 243.709 13.6893 244.568 15.008C245.58 13.72 246.853 12.7233 248.386 12.018C249.95 11.3127 251.652 10.96 253.492 10.96Z" fill="#315BF3"/>
<path d="M284.672 10.96C286.972 10.96 289.057 11.4967 290.928 12.57C292.829 13.6127 294.317 15.1 295.39 17.032C296.463 18.9333 297 21.1567 297 23.702C297 26.2474 296.463 28.486 295.39 30.418C294.317 32.3194 292.829 33.8067 290.928 34.8801C289.057 35.9227 286.972 36.4441 284.672 36.4441C281.513 36.4441 279.029 35.4474 277.22 33.4541V52.8438H270.044V11.328H276.898V14.18C278.677 12.0333 281.268 10.96 284.672 10.96ZM283.43 30.556C285.27 30.556 286.773 29.9427 287.938 28.716C289.134 27.4587 289.732 25.7874 289.732 23.702C289.732 21.6167 289.134 19.9607 287.938 18.734C286.773 17.4767 285.27 16.848 283.43 16.848C281.59 16.848 280.072 17.4767 278.876 18.734C277.711 19.9607 277.128 21.6167 277.128 23.702C277.128 25.7874 277.711 27.4587 278.876 28.716C280.072 29.9427 281.59 30.556 283.43 30.556Z" fill="#315BF3"/>
<path d="M147.419 4.55469H149.607V6.7422H147.419V4.55469Z" stroke="#E417B7" stroke-width="5"/>
<path d="M22.7172 19.7828C24.4145 18.3571 26.1306 18.5117 27.8656 20.2467L30.8754 23.2565C31.7656 24.1467 32.5501 24.5842 33.229 24.5691C33.923 24.554 34.7302 24.0863 35.6505 23.166L36.1483 22.6681L38.5472 25.067L37.3704 26.2438C35.6505 27.9637 34.0626 28.8727 32.6067 28.9707C31.1583 29.0612 29.6723 28.3446 28.1485 26.8208L25.6026 24.2749C24.72 23.3923 23.9694 22.9209 23.3508 22.8605C22.7398 22.7926 22.076 23.117 21.3594 23.8336L18.3156 20.7898C19.0322 20.0732 19.3415 19.2786 19.2736 18.6676C19.2057 18.0415 18.7418 17.4141 17.8516 16.524L15.6904 14.3628C14.2044 12.8767 13.5141 11.4171 13.6197 9.98379C13.7254 8.55053 14.6419 6.97017 16.3693 5.24272L17.5461 4.06593L19.945 6.46476L19.4471 6.96263C18.5192 7.89048 18.0515 8.69763 18.044 9.38409C18.0289 10.063 18.4664 10.8475 19.3566 11.7377L22.0948 14.4759C22.9246 15.3057 23.3621 16.1204 23.4074 16.92C23.4527 17.7196 23.1094 18.5607 22.3777 19.4433L22.7172 19.7828Z" fill="#E417B7"/>
<path d="M22.2734 22.3639C23.6991 24.0612 23.5444 25.7773 21.8094 27.5123L18.7996 30.5222C17.9095 31.4123 17.4719 32.1968 17.487 32.8757C17.5021 33.5697 17.9698 34.3769 18.8901 35.2972L19.388 35.7951L16.9892 38.1939L15.8124 37.0171C14.0925 35.2972 13.1835 33.7093 13.0854 32.2534C12.9949 30.805 13.7115 29.319 15.2353 27.7952L17.7812 25.2493C18.6638 24.3667 19.1353 23.6161 19.1956 22.9975C19.2635 22.3865 18.9392 21.7227 18.2225 21.0061L21.2663 17.9623C21.9829 18.6789 22.6468 19.0033 23.2578 18.9354C23.8839 18.8675 24.642 18.3885 25.5322 17.4984L27.6934 15.3371C29.1794 13.8511 30.6391 13.1609 32.0723 13.2665C33.5056 13.3721 35.086 14.2886 36.8134 16.0161L37.9902 17.1928L35.5914 19.5917L35.0935 19.0938C34.1657 18.1659 33.3585 17.6983 32.6721 17.6907C31.9931 17.6756 31.2086 18.1131 30.3185 19.0033L27.5802 21.7416C26.7504 22.5713 25.9357 23.0089 25.1361 23.0541C24.3365 23.0994 23.4954 22.7562 22.6128 22.0244L22.2734 22.3639Z" fill="#E417B7"/>
<path d="M20.0455 22.2734C18.3482 23.6991 16.6321 23.5444 14.8971 21.8094L11.8873 18.7996C10.9971 17.9095 10.2126 17.4719 9.5337 17.487C8.8397 17.5021 8.03255 17.9698 7.11224 18.8901L6.61437 19.388L4.21555 16.9892L5.39233 15.8124C7.11224 14.0925 8.70014 13.1835 10.156 13.0854C11.6044 12.9949 13.0904 13.7115 14.6142 15.2353L17.1602 17.7812C18.0427 18.6638 18.7933 19.1353 19.4119 19.1956C20.0229 19.2635 20.6867 18.9392 21.4034 18.2225L24.4472 21.2663C23.7305 21.9829 23.4062 22.6468 23.474 23.2578C23.5419 23.8839 24.0209 24.642 24.9111 25.5322L27.0723 27.6934C28.5583 29.1794 29.2486 30.6391 29.143 32.0723C29.0374 33.5056 28.1208 35.086 26.3934 36.8134L25.2166 37.9902L22.8178 35.5914L23.3156 35.0935C24.2435 34.1657 24.7112 33.3585 24.7187 32.6721C24.7338 31.9931 24.2963 31.2086 23.4062 30.3185L20.6679 27.5802C19.8381 26.7504 19.4006 25.9357 19.3553 25.1361C19.31 24.3365 19.6533 23.4954 20.385 22.6128L20.0455 22.2734Z" fill="#E417B7"/>
<path d="M19.7828 19.6922C19.0171 17.6895 18.5117 16.2788 20.2467 14.5438L23.2565 11.534C24.1467 10.6438 24.5842 9.85933 24.5691 9.18041C24.554 8.48641 24.0863 7.67926 23.166 6.75896L22.6681 6.26109L25.067 3.86226L26.2438 5.03905C27.9637 6.75896 28.8727 8.34686 28.9707 9.80275C29.0612 11.2511 28.3446 12.7372 26.8208 14.2609L24.2749 16.8069C23.3923 17.6895 22.9209 18.44 22.8605 19.0586C22.7926 19.6696 23.117 20.3334 23.8336 21.0501L20.7898 24.0939C20.0732 23.3772 19.4094 23.0529 18.7983 23.1208C18.1722 23.1887 17.4141 23.6677 16.524 24.5578L14.3628 26.719C12.8767 28.2051 11.4171 28.8953 9.98379 28.7897C8.55053 28.6841 6.97017 27.7675 5.24272 26.0401L4.06593 24.8633L6.46476 22.4645L6.96263 22.9623C7.89048 23.8902 8.69763 24.3579 9.38408 24.3654C10.063 24.3805 10.8475 23.943 11.7376 23.0529L14.4759 20.3146C15.3057 19.4848 16.1204 19.0473 16.92 19.002C17.7196 18.9568 18.5607 19.3 19.4433 20.0317L19.7828 19.6922Z" fill="#E417B7"/>
<path d="M181.164 52.0834V43.6206H177.735V42.324H186.058V43.6206H182.628V52.0834H181.164Z" fill="#D7D7D7"/>
<path d="M189.249 52.2228C188.701 52.2228 188.218 52.1066 187.8 51.8742C187.381 51.6419 187.056 51.3166 186.824 50.8983C186.591 50.4707 186.475 49.9828 186.475 49.4344V44.9869H187.855V49.1974C187.855 49.7551 188.013 50.1965 188.329 50.5219C188.655 50.8472 189.087 51.0098 189.626 51.0098C190.007 51.0098 190.346 50.9308 190.644 50.7728C190.941 50.6055 191.183 50.3731 191.369 50.0757V44.9869H192.763V52.0834H191.369V51.3584C190.82 51.9346 190.114 52.2228 189.249 52.2228Z" fill="#D7D7D7"/>
<path d="M194.413 52.0834V44.9869H195.808V45.8931C196.031 45.5585 196.305 45.2983 196.63 45.1124C196.965 44.9172 197.341 44.8196 197.759 44.8196C198.048 44.8289 198.285 44.8707 198.47 44.9451V46.1998C198.34 46.1441 198.206 46.1069 198.066 46.0883C197.927 46.0604 197.787 46.0465 197.648 46.0465C197.239 46.0465 196.876 46.158 196.56 46.3811C196.244 46.5949 195.993 46.9109 195.808 47.3291V52.0834H194.413Z" fill="#D7D7D7"/>
<path d="M199.587 52.0834V42.324L200.981 42.0591V48.096L204.425 44.9869H206.056L202.389 48.3051L206.251 52.0834H204.411L200.981 48.7512V52.0834H199.587Z" fill="#D7D7D7"/>
<path d="M206.899 52.0834V44.9869H208.293V45.6701C208.822 45.1217 209.487 44.8475 210.286 44.8475C210.77 44.8475 211.197 44.9544 211.569 45.1681C211.95 45.3819 212.252 45.6701 212.475 46.0325C212.773 45.6422 213.121 45.3494 213.521 45.1542C213.921 44.9497 214.371 44.8475 214.873 44.8475C215.403 44.8475 215.863 44.9637 216.254 45.196C216.653 45.4284 216.965 45.7537 217.188 46.172C217.42 46.5902 217.536 47.0735 217.536 47.6219V52.0834H216.142V47.8589C216.142 47.3013 215.993 46.8644 215.696 46.5484C215.408 46.2231 215.013 46.0604 214.511 46.0604C214.167 46.0604 213.856 46.1394 213.577 46.2974C213.298 46.4555 213.056 46.6971 212.852 47.0224C212.87 47.1154 212.884 47.213 212.894 47.3152C212.903 47.4174 212.907 47.5197 212.907 47.6219V52.0834H211.527V47.8589C211.527 47.3013 211.379 46.8644 211.081 46.5484C210.793 46.2231 210.398 46.0604 209.896 46.0604C209.561 46.0604 209.259 46.1348 208.99 46.2835C208.72 46.4229 208.488 46.6367 208.293 46.9248V52.0834H206.899Z" fill="#D7D7D7"/>
<path d="M222.54 52.2088C221.843 52.2088 221.211 52.0462 220.644 51.7209C220.087 51.3956 219.64 50.9541 219.306 50.3964C218.981 49.8387 218.818 49.216 218.818 48.5282C218.818 47.8496 218.976 47.2362 219.292 46.6878C219.608 46.1301 220.036 45.6886 220.575 45.3633C221.114 45.0287 221.713 44.8614 222.373 44.8614C223.033 44.8614 223.619 45.0287 224.13 45.3633C224.641 45.6886 225.045 46.1348 225.343 46.7018C225.649 47.2594 225.803 47.8915 225.803 48.5979V48.9882H220.212C220.286 49.3786 220.431 49.7272 220.644 50.0339C220.867 50.3406 221.146 50.5823 221.481 50.7589C221.825 50.9355 222.197 51.0238 222.596 51.0238C222.94 51.0238 223.27 50.9727 223.586 50.8704C223.911 50.7589 224.181 50.6009 224.395 50.3964L225.287 51.2747C224.869 51.5907 224.437 51.8278 223.99 51.9858C223.554 52.1345 223.07 52.2088 222.54 52.2088ZM220.226 47.9426H224.423C224.367 47.5708 224.237 47.2455 224.032 46.9667C223.837 46.6785 223.591 46.4555 223.293 46.2974C223.005 46.1301 222.689 46.0465 222.345 46.0465C221.992 46.0465 221.667 46.1255 221.369 46.2835C221.072 46.4415 220.821 46.6646 220.616 46.9527C220.421 47.2316 220.291 47.5615 220.226 47.9426Z" fill="#D7D7D7"/>
<path d="M227.131 52.0834V44.9869H228.525V45.7119C229.073 45.1356 229.784 44.8475 230.658 44.8475C231.206 44.8475 231.685 44.9637 232.094 45.196C232.512 45.4284 232.838 45.7537 233.07 46.172C233.312 46.5902 233.432 47.0735 233.432 47.6219V52.0834H232.038V47.8589C232.038 47.3013 231.88 46.8644 231.564 46.5484C231.258 46.2231 230.825 46.0604 230.268 46.0604C229.896 46.0604 229.561 46.1394 229.264 46.2974C228.966 46.4555 228.72 46.6832 228.525 46.9806V52.0834H227.131Z" fill="#D7D7D7"/>
<path d="M235.041 52.0834V44.9869H236.435V52.0834H235.041ZM235.738 43.8437C235.506 43.8437 235.306 43.76 235.139 43.5927C234.971 43.4161 234.888 43.2116 234.888 42.9793C234.888 42.7376 234.971 42.5378 235.139 42.3797C235.306 42.2124 235.506 42.1288 235.738 42.1288C235.98 42.1288 236.184 42.2124 236.352 42.3797C236.519 42.5378 236.603 42.7376 236.603 42.9793C236.603 43.2116 236.519 43.4161 236.352 43.5927C236.184 43.76 235.98 43.8437 235.738 43.8437Z" fill="#D7D7D7"/>
<path d="M240.517 52.2228C239.904 52.2228 239.327 52.1345 238.788 51.9579C238.259 51.772 237.798 51.5117 237.408 51.1771L238.175 50.257C238.537 50.5451 238.909 50.7682 239.29 50.9262C239.681 51.0749 240.076 51.1492 240.475 51.1492C240.977 51.1492 241.386 51.0517 241.702 50.8565C242.018 50.6613 242.176 50.4057 242.176 50.0897C242.176 49.8294 242.083 49.6249 241.897 49.4762C241.712 49.3275 241.423 49.2253 241.033 49.1695L239.75 48.9882C239.044 48.886 238.514 48.6676 238.161 48.333C237.808 47.9984 237.631 47.5522 237.631 46.9945C237.631 46.567 237.747 46.1952 237.98 45.8792C238.212 45.5539 238.537 45.3029 238.956 45.1263C239.374 44.9404 239.862 44.8475 240.42 44.8475C240.931 44.8475 241.423 44.9218 241.897 45.0705C242.371 45.2193 242.827 45.4516 243.264 45.7676L242.553 46.6878C242.162 46.4276 241.781 46.237 241.409 46.1162C241.047 45.9954 240.68 45.935 240.308 45.935C239.88 45.935 239.537 46.0279 239.276 46.2138C239.016 46.3904 238.886 46.6228 238.886 46.9109C238.886 47.1711 238.974 47.3756 239.151 47.5243C239.337 47.6638 239.639 47.7613 240.057 47.8171L241.34 47.9984C242.046 48.1006 242.581 48.319 242.943 48.6536C243.306 48.9789 243.487 49.4204 243.487 49.9781C243.487 50.4057 243.357 50.7914 243.096 51.1353C242.836 51.4699 242.483 51.7348 242.037 51.93C241.591 52.1252 241.084 52.2228 240.517 52.2228Z" fill="#D7D7D7"/>
<path d="M247.461 52.2088C246.774 52.2088 246.248 52.0508 245.886 51.7348C245.523 51.4095 245.342 50.9401 245.342 50.3267V46.158H243.836V44.9869H245.342V43.1744L246.722 42.8398V44.9869H248.814V46.158H246.722V50.006C246.722 50.3685 246.801 50.6287 246.959 50.7868C247.127 50.9355 247.396 51.0098 247.768 51.0098C247.963 51.0098 248.135 50.9959 248.284 50.968C248.442 50.9401 248.609 50.8983 248.786 50.8425V52.0137C248.6 52.0787 248.382 52.1252 248.131 52.1531C247.889 52.1902 247.666 52.2088 247.461 52.2088Z" fill="#D7D7D7"/>
<path d="M252.086 52.2088C251.574 52.2088 251.124 52.1205 250.733 51.9439C250.343 51.758 250.036 51.5024 249.813 51.1771C249.59 50.8518 249.478 50.4754 249.478 50.0478C249.478 49.3786 249.734 48.8535 250.245 48.4724C250.756 48.082 251.458 47.8868 252.35 47.8868C253.048 47.8868 253.693 48.0216 254.288 48.2911V47.5383C254.288 47.0271 254.14 46.646 253.842 46.395C253.554 46.1441 253.127 46.0186 252.56 46.0186C252.234 46.0186 251.895 46.0697 251.542 46.172C251.189 46.2649 250.794 46.4136 250.357 46.6181L249.841 45.5725C250.38 45.3215 250.882 45.1403 251.347 45.0287C251.811 44.9079 252.281 44.8475 252.755 44.8475C253.675 44.8475 254.386 45.0659 254.888 45.5027C255.399 45.9396 255.655 46.5623 255.655 47.371V52.0834H254.288V51.4699C253.972 51.7209 253.633 51.9068 253.271 52.0276C252.908 52.1484 252.513 52.2088 252.086 52.2088ZM250.817 50.0199C250.817 50.3639 250.961 50.6427 251.249 50.8565C251.546 51.0609 251.932 51.1632 252.406 51.1632C252.778 51.1632 253.117 51.1121 253.424 51.0098C253.74 50.8983 254.028 50.7263 254.288 50.494V49.295C254.019 49.137 253.735 49.0254 253.438 48.9604C253.15 48.886 252.824 48.8488 252.462 48.8488C251.951 48.8488 251.546 48.9557 251.249 49.1695C250.961 49.374 250.817 49.6575 250.817 50.0199Z" fill="#D7D7D7"/>
<path d="M257.261 52.0834V44.9869H258.655V45.7119C259.204 45.1356 259.915 44.8475 260.788 44.8475C261.337 44.8475 261.816 44.9637 262.224 45.196C262.643 45.4284 262.968 45.7537 263.2 46.172C263.442 46.5902 263.563 47.0735 263.563 47.6219V52.0834H262.169V47.8589C262.169 47.3013 262.011 46.8644 261.695 46.5484C261.388 46.2231 260.956 46.0604 260.398 46.0604C260.026 46.0604 259.692 46.1394 259.394 46.2974C259.097 46.4555 258.851 46.6832 258.655 46.9806V52.0834H257.261Z" fill="#D7D7D7"/>
</svg>
