<svg width="177" height="76" viewBox="0 0 177 76" fill="none" xmlns="http://www.w3.org/2000/svg">
<path fill-rule="evenodd" clip-rule="evenodd" d="M38.4755 0.258644C39.4087 0.653734 42.3313 4.11847 43.561 6.28839C44.0775 7.19919 44.9385 9.54594 45.4749 11.5038C46.5665 15.4904 47.4054 16.6723 51.0235 19.3231C52.2271 20.2048 53.3158 21.0971 53.4429 21.3063C53.8769 22.0198 53.3025 23.2744 52.0591 24.3305C50.5763 25.59 50.5107 26.2415 51.7382 27.5084C52.9021 28.7097 52.9113 29.9311 51.7644 30.9358C50.8857 31.7051 50.8824 31.7321 51.5802 32.3976C52.4095 33.1882 52.5266 35.0594 51.7666 35.3844C50.9218 35.7454 50.7557 36.8043 51.2243 38.8409C52.25 43.2969 50.8003 44.2635 43.1922 44.197L37.9579 44.151L36.5844 45.4893C34.9188 47.112 31.1765 52.6535 30.0146 55.2181C28.8283 57.836 28.1968 61.3303 28.5015 63.5913C28.8648 66.288 30.9341 70.6348 33.2035 73.4669L35.1539 75.9002L32.3938 74.2899C28.8544 72.2246 24.8071 67.8606 23.2657 64.4475C21.3934 60.3026 20.8762 57.6859 21.0383 53.1868C21.1687 49.5683 21.3094 48.9147 22.5476 46.1659C23.458 44.1453 25.0311 41.767 27.267 39.0321C32.7788 32.2901 35.0128 28.9759 36.6828 25.064C39.9712 17.36 40.522 9.67354 38.3086 2.37195C37.924 1.10257 37.6381 0.0375074 37.6738 0.00550631C37.7096 -0.0269051 38.0702 0.0871504 38.4755 0.258644Z" fill="#4285F4"/>
<ellipse rx="5.97231" ry="5.79794" transform="matrix(-1 0 0 1 25.5141 20.295)" fill="#4FC3F7"/>
<path d="M13.5698 3.23958C12.3886 3.23958 11.2339 3.57962 10.2518 4.21671C9.26967 4.85379 8.50418 5.75931 8.05215 6.81874C7.60012 7.87818 7.48185 9.04395 7.71229 10.1686C7.94273 11.2933 8.51154 12.3264 9.34678 13.1373C10.182 13.9481 11.2462 14.5003 12.4047 14.724C13.5632 14.9478 14.7641 14.8329 15.8553 14.3941C16.9466 13.9553 17.8794 13.2121 18.5356 12.2587C19.1919 11.3052 19.5422 10.1842 19.5422 9.03751L16.1185 9.03751C16.1185 9.52688 15.9691 10.0053 15.689 10.4121C15.409 10.819 15.0109 11.1362 14.5452 11.3234C14.0795 11.5107 13.567 11.5597 13.0726 11.4642C12.5782 11.3688 12.1241 11.1331 11.7676 10.7871C11.4112 10.4411 11.1685 10.0002 11.0701 9.52022C10.9718 9.04026 11.0223 8.54276 11.2152 8.09065C11.4081 7.63854 11.7347 7.25211 12.1539 6.98023C12.573 6.70835 13.0658 6.56324 13.5698 6.56324L13.5698 3.23958Z" fill="#00BFA5"/>
<path d="M16.8271 35.5801C17.5788 35.5801 18.3136 35.3637 18.9386 34.9583C19.5636 34.5529 20.0507 33.9766 20.3384 33.3024C20.626 32.6282 20.7013 31.8864 20.5547 31.1707C20.408 30.455 20.046 29.7975 19.5145 29.2815C18.983 28.7655 18.3058 28.4141 17.5686 28.2718C16.8313 28.1294 16.0672 28.2025 15.3727 28.4817C14.6783 28.761 14.0847 29.2339 13.6671 29.8407C13.2495 30.4474 13.0266 31.1608 13.0266 31.8905L16.8271 31.8905L16.8271 35.5801Z" fill="#4285F4"/>
<ellipse rx="3.25762" ry="3.16251" transform="matrix(-1 0 0 1 3.25763 15.5512)" fill="#39C3CA"/>
<rect width="10.8587" height="10.5417" transform="matrix(-1 0 0 1 33.6588 0.79248)" fill="#1CE9B6"/>
<rect width="6.51525" height="6.32502" transform="matrix(-1 0 0 1 15.1995 18.7139)" fill="#39C3CA"/>
<path d="M73.6178 25.4772H80.7413V28.4152H70.1621V6.22074H73.6178V25.4772Z" fill="#BEBEBE"/>
<path d="M82.4793 19.5374C82.4793 17.7704 82.8229 16.2056 83.5099 14.8431C84.2172 13.4805 85.167 12.4267 86.3594 11.6815C87.5719 10.9151 88.9056 10.5319 90.3606 10.5319C91.6742 10.5319 92.816 10.8087 93.786 11.3622C94.7762 11.8944 95.5643 12.5651 96.1504 13.3741V10.8193H99.6364V28.4152H96.1504V25.7966C95.5643 26.6269 94.7661 27.3188 93.7557 27.8723C92.7453 28.4258 91.5934 28.7026 90.3 28.7026C88.8652 28.7026 87.5517 28.3194 86.3594 27.553C85.167 26.7653 84.2172 25.6795 83.5099 24.2957C82.8229 22.8905 82.4793 21.3045 82.4793 19.5374ZM96.1504 19.6013C96.1504 18.3878 95.9079 17.3339 95.4229 16.4398C94.9581 15.5456 94.3417 14.8643 93.5738 14.396C92.8059 13.9276 91.9773 13.6934 91.0882 13.6934C90.199 13.6934 89.3704 13.9276 88.6025 14.396C87.8346 14.8431 87.2081 15.5137 86.7231 16.4078C86.2583 17.2807 86.0259 18.3239 86.0259 19.5374C86.0259 20.7509 86.2583 21.8154 86.7231 22.7309C87.2081 23.6463 87.8346 24.3489 88.6025 24.8385C89.3906 25.3069 90.2192 25.5411 91.0882 25.5411C91.9773 25.5411 92.8059 25.3069 93.5738 24.8385C94.3417 24.3702 94.9581 23.6889 95.4229 22.7947C95.9079 21.8793 96.1504 20.8148 96.1504 19.6013Z" fill="#BEBEBE"/>
<path d="M119.301 10.8193V28.4152H115.846V26.3395C115.3 27.0633 114.583 27.6381 113.693 28.0639C112.825 28.4684 111.895 28.6707 110.905 28.6707C109.591 28.6707 108.409 28.3833 107.358 27.8084C106.327 27.2336 105.509 26.382 104.903 25.2537C104.317 24.1253 104.024 22.7628 104.024 21.1661V10.8193H107.449V20.6232C107.449 22.1986 107.823 23.4121 108.571 24.2637C109.318 25.094 110.339 25.5092 111.632 25.5092C112.926 25.5092 113.946 25.094 114.694 24.2637C115.462 23.4121 115.846 22.1986 115.846 20.6232V10.8193H119.301Z" fill="#BEBEBE"/>
<path d="M132.288 10.5319C133.601 10.5319 134.773 10.8193 135.804 11.3941C136.855 11.9689 137.673 12.8205 138.259 13.9489C138.845 15.0772 139.139 16.4398 139.139 18.0365V28.4152H135.713V18.5794C135.713 17.0039 135.339 15.8011 134.592 14.9708C133.844 14.1192 132.823 13.6934 131.53 13.6934C130.237 13.6934 129.206 14.1192 128.438 14.9708C127.69 15.8011 127.316 17.0039 127.316 18.5794V28.4152H123.861V10.8193H127.316V12.8312C127.882 12.1073 128.6 11.5432 129.469 11.1387C130.358 10.7341 131.298 10.5319 132.288 10.5319Z" fill="#BEBEBE"/>
<path d="M142.395 19.6013C142.395 17.7917 142.738 16.2056 143.425 14.8431C144.132 13.4592 145.102 12.3947 146.335 11.6496C147.568 10.9045 148.983 10.5319 150.579 10.5319C152.6 10.5319 154.267 11.0428 155.581 12.0648C156.914 13.0654 157.814 14.5024 158.278 16.3759H154.55C154.247 15.503 153.762 14.8218 153.095 14.3321C152.428 13.8424 151.589 13.5976 150.579 13.5976C149.164 13.5976 148.033 14.1298 147.184 15.1943C146.355 16.2375 145.941 17.7065 145.941 19.6013C145.941 21.4961 146.355 22.9757 147.184 24.0402C148.033 25.1047 149.164 25.6369 150.579 25.6369C152.58 25.6369 153.903 24.7108 154.55 22.8586H158.278C157.793 24.6469 156.884 26.0733 155.55 27.1378C154.217 28.181 152.559 28.7026 150.579 28.7026C148.983 28.7026 147.568 28.33 146.335 27.5849C145.102 26.8185 144.132 25.754 143.425 24.3915C142.738 23.0076 142.395 21.4109 142.395 19.6013Z" fill="#BEBEBE"/>
<path d="M170.361 10.5319C171.635 10.5319 172.766 10.8193 173.756 11.3941C174.767 11.9689 175.555 12.8205 176.121 13.9489C176.707 15.0772 177 16.4398 177 18.0365V28.4152H173.575V18.5794C173.575 17.0039 173.201 15.8011 172.453 14.9708C171.705 14.1192 170.685 13.6934 169.391 13.6934C168.098 13.6934 167.067 14.1192 166.3 14.9708C165.552 15.8011 165.178 17.0039 165.178 18.5794V28.4152H161.722V4.78369H165.178V12.8631C165.764 12.118 166.502 11.5432 167.391 11.1387C168.3 10.7341 169.29 10.5319 170.361 10.5319Z" fill="#BEBEBE"/>
<path d="M73.5741 60.6904H80.6077V63.508H70.1621V42.2229H73.5741V60.6904Z" fill="#BEBEBE"/>
<path d="M85.1971 44.3974C84.5785 44.3974 84.0598 44.183 83.6407 43.7542C83.2217 43.3255 83.0122 42.7946 83.0122 42.1617C83.0122 41.5288 83.2217 40.9979 83.6407 40.5691C84.0598 40.1404 84.5785 39.926 85.1971 39.926C85.7957 39.926 86.3045 40.1404 86.7235 40.5691C87.1426 40.9979 87.3521 41.5288 87.3521 42.1617C87.3521 42.7946 87.1426 43.3255 86.7235 43.7542C86.3045 44.183 85.7957 44.3974 85.1971 44.3974ZM86.8732 46.6331V63.508H83.4611V46.6331H86.8732Z" fill="#BEBEBE"/>
<path d="M98.2668 49.4813H95.2139V63.508H91.7719V49.4813H89.8264V46.6331H91.7719V45.4387C91.7719 43.499 92.2707 42.0902 93.2684 41.2123C94.286 40.3139 95.8723 39.8647 98.0273 39.8647V42.7742C96.9897 42.7742 96.2614 42.9784 95.8424 43.3867C95.4234 43.7747 95.2139 44.4586 95.2139 45.4387V46.6331H98.2668V49.4813Z" fill="#BEBEBE"/>
<path d="M116.405 54.6571C116.405 55.29 116.365 55.8617 116.286 56.3722H103.685C103.785 57.7197 104.274 58.8018 105.152 59.6185C106.03 60.4352 107.107 60.8436 108.384 60.8436C110.22 60.8436 111.517 60.0575 112.275 58.4854H115.956C115.458 60.0371 114.55 61.3132 113.233 62.3136C111.936 63.2936 110.32 63.7837 108.384 63.7837C106.808 63.7837 105.391 63.4264 104.134 62.7118C102.897 61.9767 101.919 60.9559 101.201 59.6492C100.502 58.322 100.153 56.7907 100.153 55.0552C100.153 53.3198 100.492 51.7987 101.171 50.492C101.869 49.1648 102.837 48.144 104.074 47.4294C105.331 46.7148 106.768 46.3575 108.384 46.3575C109.94 46.3575 111.327 46.7046 112.544 47.3987C113.762 48.0929 114.709 49.073 115.388 50.3388C116.066 51.5843 116.405 53.0237 116.405 54.6571ZM112.844 53.5546C112.824 52.2683 112.375 51.2372 111.497 50.4613C110.619 49.6855 109.531 49.2976 108.234 49.2976C107.057 49.2976 106.05 49.6855 105.211 50.4613C104.373 51.2168 103.875 52.2479 103.715 53.5546H112.844Z" fill="#BEBEBE"/>
</svg>
