<svg width="349" height="220" viewBox="0 0 349 220" fill="none" xmlns="http://www.w3.org/2000/svg">
<path d="M312.131 132.493H529.951V367.464H312.131V132.493Z" fill="#487FFF"/>
<path d="M324.994 145.356H517.087V354.601H324.994V145.356Z" fill="#F5EBDD"/>
<path d="M349.883 279.016C349.21 280.787 347.229 281.677 345.458 281.004C343.687 280.332 342.797 278.351 343.47 276.58L387.824 159.817C388.496 158.046 390.478 157.156 392.249 157.828C394.02 158.501 394.91 160.482 394.237 162.253L349.883 279.016Z" fill="#30242A"/>
<path d="M358.448 211.165C354.456 213.562 355.313 218.205 355.313 218.205C355.313 218.205 347.282 217.103 347.518 225.315C347.518 225.315 341.116 228.256 344.054 234.658C344.054 234.658 339.65 235.807 341.85 242.843C343.994 249.704 348.38 254.03 351.283 254.42C352.818 254.626 356.428 253.134 355.999 247.56C355.999 247.56 359.858 249.704 362.431 247.56C365.81 244.743 364.575 240.699 364.575 240.699C364.575 240.699 368.434 241.985 370.149 238.984C372.01 235.73 369.72 231.266 369.72 231.266C369.72 231.266 372.803 231.695 373.579 228.693C375.226 222.36 368.395 216.983 366.719 215.401L368.005 211.971C368.005 211.971 362.431 208.772 358.448 211.165Z" fill="#EAA58B"/>
<path d="M39.4274 0H257.247V234.971H39.4274V0Z" fill="#FFB7D5"/>
<path d="M52.2907 12.8635H244.384V222.108H52.2907V12.8635Z" fill="#F5EBDD"/>
<path d="M42.8574 89.615H253.817V102.478H42.8574V89.615Z" fill="#FFB7D5"/>
<path d="M168.05 77.5371L163.344 90.4256L215.301 109.398C217.01 110.022 218.897 109.942 220.547 109.175C222.197 108.407 223.474 107.016 224.098 105.307C224.723 103.598 224.642 101.711 223.875 100.061C223.108 98.4111 221.716 97.1336 220.007 96.5095L168.05 77.5371Z" fill="#30242A"/>
<path d="M209.051 92.5098L204.345 105.398L215.3 109.399C217.009 110.023 218.896 109.942 220.546 109.175C222.196 108.408 223.473 107.017 224.097 105.308C224.722 103.598 224.641 101.711 223.874 100.062C223.107 98.4117 221.716 97.1342 220.006 96.5101L209.051 92.5098Z" fill="#30242A"/>
<path d="M158.028 96.1925C149.739 96.1925 143.02 89.4735 143.02 81.1852C143.02 72.897 149.739 66.178 158.028 66.178C166.316 66.178 173.035 72.897 173.035 81.1852C173.035 89.4735 166.316 96.1925 158.028 96.1925Z" fill="#4756DF"/>
<path d="M223.935 105.205C241.944 111.637 264.511 121.138 279.248 102.632C297.685 79.4782 261.668 55.4665 251.806 85.9099C240.683 120.246 308.696 144.408 291.254 175.525C275.389 203.824 225.445 173.329 196.493 183.671C172.482 192.247 171.856 221.511 171.856 221.511" stroke="#30242A" stroke-width="4" stroke-miterlimit="10" stroke-linecap="round"/>
<path d="M175.35 80.1817C176.208 75.0364 179.638 71.1774 181.782 70.6671C186.897 69.458 189.723 74.0974 189.723 74.0974C189.723 74.0974 193.771 70.3884 199.43 75.3623C199.43 75.3623 205.914 73.3384 208.714 79.1612C208.714 79.1612 211.595 78.0721 214.794 84.0322C217.396 88.8902 219.51 96.1666 216.509 98.1819C215.222 99.0394 211.363 98.6107 210.077 95.6092C210.077 95.6092 208.919 97.7531 206.647 97.3243C201.93 96.4668 201.501 92.6078 201.501 92.6078C201.501 92.6078 201.103 94.0613 198.5 94.3229C194.281 94.7517 192.068 90.4639 192.068 90.4639C192.068 90.4639 190.469 91.5315 187.352 90.4639C183.188 89.036 182.112 82.8059 182.112 82.8059L175.35 80.1817Z" fill="#FFBCA8"/>
<path d="M12.9947 150.064C5.81798 142.586 6.97963 129.825 15.5893 121.563C24.199 113.301 36.9965 112.666 44.1732 120.144C51.35 127.623 50.1883 140.383 41.5786 148.646C32.9689 156.908 20.1715 157.543 12.9947 150.064Z" fill="#30242A"/>
<path d="M50.5758 137.638C50.5758 137.638 35.5685 128.205 33.4246 111.054" stroke="black" stroke-width="4" stroke-linecap="round" stroke-linejoin="round"/>
<path d="M95.9999 123.626C92.3957 112.251 97.4841 100.491 107.365 97.3608C117.246 94.2302 128.178 100.914 131.782 112.289C135.386 123.665 130.298 135.424 120.417 138.555C110.536 141.686 99.604 135.002 95.9999 123.626Z" fill="#30242A"/>
<path d="M37.6651 117.151C38.0553 115.792 14.4468 130.336 19.2276 135.16C23.7384 139.688 35.7013 124.02 37.6651 117.151Z" fill="#4756DF"/>
<path d="M37.4765 117.996C38.2483 116.336 17.8942 95.5535 14.4854 101.346C11.2095 106.92 36.7047 119.651 37.4765 117.996Z" fill="#4756DF"/>
<path d="M60.8663 120.916C66.4404 119.201 78.4462 118.343 85.3067 117.485C99.8852 109.767 96.0262 89.6148 96.0262 89.6148C95.1686 89.186 81.2119 86.6519 83.1371 75.7523C84.8522 65.8904 96.4593 65.8904 102.831 72.8538C102.831 72.8538 111.891 69.0334 114.464 56.5988C114.464 56.5988 122.113 57.4778 127.417 56.0757C128.571 61.1739 128.858 66.7609 129.9 72.4636C129.9 72.4636 135.474 72.8924 135.903 75.0363C136.331 77.3002 131.924 79.9758 131.924 79.9758C134.925 90.8754 134.496 100.754 127.756 104.622C121.753 108.052 114.464 106.766 114.464 106.766L115.321 117.057C122.83 117.34 130.231 118.937 137.189 121.773C151.42 127.57 184.783 149.644 184.783 149.644C182.211 141.068 171.659 114.021 167.632 96.904C165.917 89.6148 164.202 82.7543 168.49 82.3255C173.181 81.8539 180.067 96.4752 180.067 96.4752L209.224 107.195C226.414 130.447 246.528 183.089 220.372 196.381C196.789 208.387 144.049 179.23 144.049 179.23L148.766 222.108H63.0102L43.7151 130.778C43.7151 130.778 43.6337 130.692 43.4879 130.525C49.5166 125.311 56.7757 122.172 60.8663 120.916Z" fill="#FFBCA8"/>
<path d="M72.0145 112.494H114.94L115.321 117.057C118.665 117.151 121.994 117.541 125.269 118.223C126.362 118.442 127.52 118.699 128.725 119.003C131.607 119.731 134.435 120.656 137.189 121.773C137.793 122.018 138.441 122.301 139.114 122.601C140.358 123.167 141.687 123.818 143.14 124.543C152.814 129.453 166.114 137.668 175.063 143.358L163.443 166.593L157.612 178.256L154.503 184.469C148.123 181.468 144.049 179.23 144.049 179.23L148.766 222.107H63.0101L43.7151 130.778C42.6857 129.63 41.7332 128.415 40.8637 127.141V127.017L72.0145 112.494Z" fill="#487FFF"/>
<path d="M133.201 124.633L139.114 122.601C140.358 123.166 141.687 123.818 143.14 124.543L138.295 132.471L147.921 145.6L135.229 140.352L128.159 153.391L127.353 139.036L115.098 136.411L125.603 129.847L125.269 118.223C126.362 118.441 127.52 118.699 128.725 119.003L133.201 124.633Z" fill="#FF7235"/>
<path d="M154.632 173.896L144.135 172.331L144.019 169.201L149.452 166.718L144.967 153.357L156.943 161.234L164.472 152.658L163.383 166.572L163.443 166.594L157.612 178.256L154.632 173.896Z" fill="#FF7235"/>
<path d="M88.5098 138.028L83.6946 154.219L78.8837 138.028L63.5634 133.65L78.4463 127.523V113.519L86.7603 124.457L98.5775 118.768L91.5756 130.585L102.514 139.778L88.5098 138.028Z" fill="#FF7235"/>
<path d="M103.088 218.579L112.101 205.248L104.362 193.577L117.336 198.096L124.043 186.823L124.737 200.544L138.934 202.157L126.298 208.438L130.474 222.108H128.262L118.271 213.759L103.088 218.579Z" fill="#FF7235"/>
<path d="M98.6976 191.531L88.1968 182.342L76.3797 190.219L81.6322 177.09L72.4392 167.026L85.5684 169.213L91.6956 158.271L93.012 170.088L105.262 169.65L94.7614 177.527L98.6976 191.531Z" fill="#FF7235"/>
<path d="M114.464 56.5985C111.891 69.0331 102.831 72.8535 102.831 72.8535C96.4592 65.903 84.8735 65.903 83.137 75.752C81.2118 86.6516 95.1685 89.1857 96.026 89.6145C96.026 89.6145 99.8851 109.767 85.3066 117.485C78.4461 118.343 66.4403 119.2 60.8662 120.915C56.7756 122.172 49.5164 125.31 43.4878 130.524C41.3439 128.106 25.0245 108.455 40.2848 89.1857C50.8799 75.7992 68.2926 78.0932 68.2926 78.0932C67.7138 71.1384 66.5775 53.1811 81.6148 42.1743C96.6521 31.1676 115.797 36.9604 122.748 45.6517C125.23 48.7518 126.564 52.2807 127.417 56.0754C122.113 57.4775 114.464 56.5985 114.464 56.5985Z" fill="#30242A"/>
<path d="M180.86 96.1404C181.469 97.5468 182.095 99.1418 182.64 100.763C182.64 100.763 192.502 102.907 195.156 109.553" stroke="#30242A" stroke-width="4" stroke-miterlimit="10" stroke-linecap="round"/>
<path d="M183.549 148.795L188.642 162.139" stroke="#30242A" stroke-width="4" stroke-linecap="round" stroke-linejoin="round"/>
<path d="M143.192 163.365L144.976 179.41" stroke="#724342" stroke-width="4" stroke-linecap="round" stroke-linejoin="round"/>
<path d="M116.179 108.052C112.236 107.432 108.389 106.305 104.735 104.699" stroke="#30242A" stroke-width="4" stroke-miterlimit="10" stroke-linecap="round"/>
<path d="M97.0167 80.3358L91.4426 76.9055" stroke="#30242A" stroke-width="4" stroke-miterlimit="10" stroke-linecap="round"/>
<path d="M67.6409 77.9138C67.9582 81.0911 68.3869 85.0659 68.8029 88.2045" stroke="black" stroke-width="4" stroke-miterlimit="10" stroke-linecap="round"/>
<path d="M99.0706 85.5498L100.631 95.0344C100.7 95.4512 100.66 95.8786 100.517 96.2756C100.373 96.6727 100.129 97.0261 99.8092 97.302C99.4894 97.5779 99.1041 97.7671 98.6902 97.8513C98.2763 97.9355 97.8477 97.9119 97.4455 97.7829L89.0929 95.103C88.6906 94.9739 88.3282 94.7436 88.0405 94.4341C87.7528 94.1246 87.5494 93.7463 87.4499 93.3357C87.3505 92.925 87.3583 92.4956 87.4726 92.0888C87.5868 91.682 87.8037 91.3113 88.1024 91.0125L94.8729 84.1949C95.1935 83.8679 95.5989 83.6366 96.0436 83.5271C96.4883 83.4176 96.9547 83.4341 97.3906 83.5748C97.8264 83.7154 98.2145 83.9747 98.5112 84.3236C98.8079 84.6724 99.0017 85.0971 99.0706 85.5498Z" fill="#F4E6D8"/>
<path d="M119.124 83.1572C119.515 88.8257 125.354 89.2116 126.727 85.1854L119.124 83.1572Z" stroke="#30242A" stroke-width="4" stroke-linecap="round" stroke-linejoin="round"/>
<path d="M118.181 72.7002C119.219 73.2104 122.924 73.3176 124.124 70.3547" stroke="#30242A" stroke-width="4" stroke-linecap="round" stroke-linejoin="round"/>
<path d="M60.8662 120.916L60.9992 190.103C60.9992 190.103 103.148 164.87 106.407 164.668C108.804 164.518 110.588 169.946 106.261 174.431C117.924 172.266 129.514 171.13 131.336 174.68C132.434 176.824 130.646 179.054 130.646 179.054C132.044 179.229 133.407 179.598 134.187 180.516C136.061 182.715 133.489 186.09 133.489 186.09C135.864 187.235 135.045 190.807 132.901 192.522C127.657 196.711 111.947 199.704 111.947 199.704C117.598 200.394 128.472 201.037 127.889 204.253C127.031 208.97 103.02 208.97 103.02 208.97C94.0152 214.973 86.593 214.818 86.593 214.818C86.593 214.818 64.6052 237.389 42.4287 242.689C-14.5989 252.551 29.9942 145.785 42 132.064C49.4521 123.544 60.8662 120.916 60.8662 120.916Z" fill="#FFBCA8"/>
<path d="M115.42 200.682C112.418 200.652 109.168 200.639 105.888 200.682" stroke="#30242A" stroke-width="4" stroke-linecap="round" stroke-linejoin="round"/>
<path d="M133.892 187.063C126.877 188.35 114.485 190.721 105.447 192.951" stroke="#30242A" stroke-width="4" stroke-linecap="round" stroke-linejoin="round"/>
<path d="M131.071 179.26C122.379 180.447 109.902 182.261 102.029 183.946" stroke="#30242A" stroke-width="4" stroke-linecap="round" stroke-linejoin="round"/>
<path d="M105.331 173.926C102.176 174.642 99.0682 175.554 96.0265 176.657" stroke="#30242A" stroke-width="4" stroke-linecap="round" stroke-linejoin="round"/>
<path d="M35.5942 151.042L36.4003 165.397L43.4709 152.371L56.1627 157.619L46.5366 144.49L53.9502 132.355L41.4427 136.643L39.9892 134.791C40.6051 133.839 41.2826 132.928 42.0173 132.064C49.4695 123.544 60.8836 120.916 60.8836 120.916L60.9822 172.326L57.1832 176.052L46.6824 164.552L51.9907 180.349L51.0602 181.035L22.1262 174.817C24.8842 166.451 28.0992 158.241 31.7566 150.227L35.5942 151.042Z" fill="#487FFF"/>
<path d="M53.9503 132.342L46.5366 144.477L56.1627 157.606L43.4709 152.358L36.4003 165.397L35.5942 151.041L31.7352 150.222C34.7624 143.636 37.6609 138.242 39.9506 134.786L41.4213 136.634L53.9503 132.342Z" fill="#FF7235"/>
<path d="M51.9734 180.349L46.6651 164.549L57.1659 176.053L60.9649 172.327L60.9863 183.175L51.043 181.035L51.9734 180.349Z" fill="#FF7235"/>
<path d="M61.8569 162.739V188.504" stroke="#724342" stroke-width="4" stroke-linecap="round" stroke-linejoin="round"/>
<path d="M62.0242 188.504C62.0242 188.504 53.7101 193.534 40.8468 201.252" stroke="#30242A" stroke-width="4" stroke-linecap="round" stroke-linejoin="round"/>
<path d="M209.636 79.5342C210.802 83.8606 211.84 89.9535 210.961 96.2051" stroke="#30242A" stroke-width="4" stroke-miterlimit="10" stroke-linecap="round"/>
<path d="M200.55 75.667C201.677 79.0543 202.869 84.9029 202.166 93.59" stroke="#30242A" stroke-width="4" stroke-miterlimit="10" stroke-linecap="round"/>
<path d="M190.658 74.02C191.884 77.6175 193.526 83.2645 192.827 90.4766" stroke="#30242A" stroke-width="4" stroke-miterlimit="10" stroke-linecap="round"/>
<path d="M180.869 77.4805C180.869 77.4805 180.993 80.1389 181.203 83.0546" stroke="#30242A" stroke-width="4" stroke-miterlimit="10" stroke-linecap="round"/>
</svg>
