<svg width="439" height="234" viewBox="0 0 439 234" fill="none" xmlns="http://www.w3.org/2000/svg">
<path d="M256.375 212.815H70.9743V309.871H256.375V212.815Z" fill="#CA7358"/>
<path d="M243.904 225.311H83.4452V297.374H243.904V225.311Z" fill="#FFBE21"/>
<path d="M128.548 171.69C131.877 171.69 134.576 168.986 134.576 165.65C134.576 162.314 131.877 159.61 128.548 159.61C125.219 159.61 122.521 162.314 122.521 165.65C122.521 168.986 125.219 171.69 128.548 171.69Z" fill="#FFBE21"/>
<path d="M159.725 171.69C163.054 171.69 165.753 168.986 165.753 165.65C165.753 162.314 163.054 159.61 159.725 159.61C156.397 159.61 153.698 162.314 153.698 165.65C153.698 168.986 156.397 171.69 159.725 171.69Z" fill="#FFBE21"/>
<path d="M144.137 159.609C143.328 159.609 142.529 159.793 141.801 160.147C141.437 158.938 140.706 157.874 139.709 157.103C138.712 156.332 137.499 155.892 136.24 155.845C134.982 155.799 133.74 156.148 132.689 156.843C131.638 157.539 130.83 158.546 130.379 159.725C129.927 160.903 129.855 162.193 130.172 163.415C130.488 164.636 131.178 165.728 132.144 166.538C133.111 167.347 134.305 167.834 135.561 167.929C136.817 168.024 138.071 167.724 139.149 167.07C139.519 167.979 140.129 168.771 140.914 169.36C141.699 169.949 142.629 170.312 143.605 170.412C144.58 170.511 145.564 170.343 146.452 169.925C147.339 169.507 148.096 168.855 148.642 168.039C149.188 167.222 149.501 166.273 149.55 165.291C149.598 164.31 149.379 163.334 148.916 162.468C148.453 161.602 147.764 160.878 146.922 160.375C146.08 159.871 145.117 159.606 144.137 159.609Z" fill="#FFBE21"/>
<path d="M154.916 159.626C154.502 158.613 153.82 157.732 152.945 157.077C152.07 156.422 151.034 156.018 149.947 155.908C148.861 155.797 147.765 155.984 146.776 156.45C145.787 156.915 144.944 157.641 144.335 158.55C143.726 159.458 143.375 160.515 143.319 161.609C143.263 162.702 143.505 163.789 144.018 164.755C144.532 165.721 145.297 166.529 146.233 167.093C147.169 167.657 148.241 167.956 149.333 167.957C149.543 167.956 149.752 167.945 149.961 167.923C150.452 168.708 151.136 169.353 151.947 169.796C152.758 170.24 153.669 170.468 154.593 170.459C155.517 170.45 156.423 170.203 157.225 169.742C158.027 169.282 158.697 168.623 159.172 167.829C159.648 167.035 159.912 166.132 159.939 165.206C159.967 164.28 159.757 163.363 159.33 162.542C158.903 161.721 158.273 161.023 157.5 160.515C156.728 160.008 155.838 159.707 154.916 159.642V159.626Z" fill="#FFBE21"/>
<path d="M142.058 162.108C144.584 162.108 146.631 160.056 146.631 157.526C146.631 154.995 144.584 152.944 142.058 152.944C139.533 152.944 137.486 154.995 137.486 157.526C137.486 160.056 139.533 162.108 142.058 162.108Z" fill="#FFBE21"/>
<path d="M157.231 151.279C158.953 151.279 160.349 149.88 160.349 148.154C160.349 146.429 158.953 145.03 157.231 145.03C155.509 145.03 154.114 146.429 154.114 148.154C154.114 149.88 155.509 151.279 157.231 151.279Z" fill="#FFBE21"/>
<path d="M119.332 165.44L127.646 212.927H133.537L126.956 165.44H119.332Z" fill="#487FFF"/>
<path d="M161.18 165.44L154.596 212.927H160.486L168.8 165.44H161.18Z" fill="#487FFF"/>
<path d="M150.788 165.44L147.679 212.927H154.596L161.18 165.44H150.788Z" fill="#F5EBDD"/>
<path d="M126.956 165.44L133.536 212.927H140.454L137.348 165.44H126.956Z" fill="#F5EBDD"/>
<path d="M137.349 165.44L140.454 212.927H147.679L150.788 165.44H137.349Z" fill="#487FFF"/>
<path d="M218.085 180.578H295.866V334.264H184.459V214.269C184.461 205.333 188.004 196.764 194.31 190.446C200.616 184.128 209.168 180.578 218.085 180.578Z" fill="#FFB7D5"/>
<path d="M304.134 97.2437H413.973C422.891 97.2448 431.442 100.795 437.747 107.114C444.053 113.433 447.595 122.003 447.595 130.938V334.26H270.508V130.938C270.508 122.002 274.051 113.432 280.357 107.113C286.663 100.794 295.216 97.2437 304.134 97.2437Z" fill="#FFB7D5"/>
<path d="M264.643 221.616H413.973C422.89 221.617 431.441 225.167 437.746 231.485C444.051 237.803 447.594 246.372 447.595 255.306V334.259H231.017V255.306C231.018 246.371 234.562 237.802 240.867 231.483C247.173 225.165 255.726 221.616 264.643 221.616Z" fill="#FFB7D5"/>
<path d="M447.595 180.083H377.284" stroke="#CA7358" stroke-width="4" stroke-miterlimit="10"/>
<path d="M257.206 0H71.8056V125.798H257.206V0Z" fill="#F5EBDD"/>
<path d="M244.735 12.4966H84.2766V113.302H244.735V12.4966Z" fill="#30242A"/>
<path d="M312.494 160.443C312.494 160.443 273.418 169.19 253.465 180.437C232.946 192.001 231.017 208.229 218.21 247.206C212.59 264.284 209.767 276.548 206.745 284.945L241.618 301.445C243.28 298.354 244.76 295.313 245.982 292.489C245.982 292.489 261.97 291.777 263.496 270.337C264.635 254.321 265.183 242.466 270.762 230.502L366.081 160.26L312.494 160.443Z" fill="#30242A"/>
<path d="M385.864 177.274L384.409 161.22H355.726C355.726 161.22 307.505 172.784 287.007 182.635C266.605 192.433 269.053 215.189 272.899 255.023C274.861 275.33 277.309 289.276 277.18 299.152H315.009C315.216 295.948 315.355 292.567 315.424 289.01C315.424 289.01 330.181 282.007 322.491 259.305C317.341 244.101 312.893 234.033 312.893 220.829H346.165C351.704 220.829 357.182 219.673 362.25 217.434C367.318 215.195 371.865 211.922 375.6 207.824C379.335 203.726 382.177 198.893 383.944 193.633C385.712 188.373 386.365 182.802 385.864 177.274Z" fill="#30242A"/>
<path d="M313.325 172.522C304.138 175.463 293.297 179.062 286.305 182.519C270.338 190.404 268.301 205.779 270.034 231.38" stroke="#A15842" stroke-width="4" stroke-linecap="round" stroke-linejoin="round"/>
<path d="M312.494 221.816H302.18" stroke="#A15842" stroke-width="4" stroke-linecap="round" stroke-linejoin="round"/>
<path d="M369.814 180.578H447.595V334.264H336.188V214.269C336.189 205.333 339.733 196.764 346.038 190.446C352.344 184.128 360.897 180.578 369.814 180.578Z" fill="#FFB7D5"/>
<path d="M335.357 220.845V333.763" stroke="#CA7358" stroke-width="4" stroke-miterlimit="10"/>
<path d="M32.9382 196.474L42.4992 268.537" stroke="#30242A" stroke-width="4" stroke-miterlimit="10" stroke-linecap="round"/>
<path d="M29.8788 225.516L41.061 267.933" stroke="#30242A" stroke-width="4" stroke-miterlimit="10" stroke-linecap="round"/>
<path d="M64.5668 242.439C72.5293 239.028 78.2218 234.475 77.2813 232.271C76.3409 230.067 69.1235 231.046 61.161 234.457C53.1984 237.869 47.5059 242.421 48.4464 244.625C49.3869 246.83 56.6042 245.851 64.5668 242.439Z" fill="#30242A"/>
<path d="M49.7681 228.563C55.374 224.331 59.0505 219.747 57.98 218.323C56.9095 216.898 51.4972 219.174 45.8914 223.406C40.2855 227.637 36.609 232.222 37.6795 233.646C38.75 235.07 44.1623 232.794 49.7681 228.563Z" fill="#30242A"/>
<path d="M54.9701 205.221L44.162 271.869" stroke="#30242A" stroke-width="4" stroke-miterlimit="10" stroke-linecap="round"/>
<path d="M37.1575 212.128C36.1589 210.469 34.7767 209.075 33.1275 208.064C31.4784 207.053 29.6106 206.454 27.6819 206.317C25.7532 206.181 23.8201 206.512 22.0458 207.282C20.2714 208.051 18.7078 209.237 17.4869 210.74C16.266 212.242 15.4237 214.017 15.0309 215.914C14.6382 217.811 14.7066 219.775 15.2303 221.64C15.7541 223.505 16.7178 225.216 18.0402 226.63C19.3626 228.043 21.0049 229.117 22.8285 229.761C23.4383 225.811 25.0873 222.096 27.6058 218.997C30.1242 215.898 33.4212 213.527 37.1575 212.128Z" fill="#FFB7D5"/>
<path d="M31.6454 219.617C29.4494 214.6 25.5096 210.553 20.5588 208.229" stroke="#F5EBDD" stroke-width="4" stroke-miterlimit="10" stroke-linecap="round"/>
<path d="M29.8204 221.437C26.0123 217.468 20.8787 215.044 15.3999 214.627" stroke="#F5EBDD" stroke-width="4" stroke-miterlimit="10" stroke-linecap="round"/>
<path d="M22.8284 229.76C25.1703 230.587 27.71 230.669 30.1002 229.995C32.4904 229.321 34.6147 227.924 36.1826 225.995C37.7505 224.065 38.6856 221.698 38.8601 219.216C39.0345 216.734 38.4399 214.259 37.1574 212.128C33.4211 213.526 30.1241 215.897 27.6057 218.996C25.0872 222.095 23.4382 225.811 22.8284 229.76Z" fill="#487FFF"/>
<path d="M19.353 188.643C19.3112 186.706 19.7347 184.788 20.5879 183.05C21.4412 181.312 22.699 179.805 24.2554 178.656C25.8118 177.507 27.6211 176.75 29.5307 176.448C31.4403 176.147 33.3941 176.311 35.2275 176.925C37.0609 177.539 38.72 178.586 40.0649 179.977C41.4098 181.369 42.401 183.064 42.955 184.92C43.5089 186.776 43.6094 188.738 43.2479 190.641C42.8864 192.543 42.0735 194.331 40.8778 195.853C38.2529 192.843 34.875 190.589 31.0918 189.321C27.3085 188.054 23.2566 187.82 19.353 188.643Z" fill="#FFB7D5"/>
<path d="M28.0123 192.012C27.1857 186.596 28.3529 181.063 31.2963 176.446" stroke="#F5EBDD" stroke-width="4" stroke-miterlimit="10" stroke-linecap="round"/>
<path d="M30.5188 192.57C31.6189 187.176 34.6611 182.377 39.0655 179.086" stroke="#F5EBDD" stroke-width="4" stroke-miterlimit="10" stroke-linecap="round"/>
<path d="M40.878 195.853C39.3416 197.808 37.2399 199.241 34.8602 199.954C32.4806 200.667 29.9392 200.627 27.5835 199.838C25.2278 199.048 23.1729 197.549 21.6997 195.546C20.2265 193.542 19.407 191.131 19.3532 188.642C23.2568 187.819 27.3087 188.054 31.092 189.321C34.8752 190.588 38.2531 192.843 40.878 195.853Z" fill="#487FFF"/>
<path d="M48.2941 189.488C49.4826 187.96 51.0206 186.74 52.7783 185.932C54.536 185.124 56.4619 184.752 58.3933 184.847C60.3248 184.942 62.2051 185.501 63.8757 186.477C65.5462 187.453 66.9579 188.817 67.9917 190.455C69.0254 192.092 69.6509 193.955 69.8152 195.886C69.9796 197.816 69.678 199.758 68.936 201.548C68.194 203.337 67.0332 204.922 65.5518 206.167C64.0703 207.412 62.3116 208.282 60.4241 208.704C60.2879 204.71 59.0923 200.824 56.9604 197.447C54.8285 194.07 51.8371 191.323 48.2941 189.488Z" fill="#FFB7D5"/>
<path d="M52.8792 197.581C55.652 192.857 60.0444 189.304 65.2379 187.584" stroke="#F5EBDD" stroke-width="4" stroke-miterlimit="10" stroke-linecap="round"/>
<path d="M54.4669 199.607C58.7199 196.121 64.1049 194.327 69.5941 194.566" stroke="#F5EBDD" stroke-width="4" stroke-miterlimit="10" stroke-linecap="round"/>
<path d="M60.424 208.703C58.0008 209.244 55.4701 209.022 53.1776 208.068C50.8852 207.113 48.9427 205.472 47.6156 203.37C46.2884 201.268 45.6414 198.806 45.7628 196.322C45.8842 193.837 46.7682 191.45 48.294 189.488C51.837 191.322 54.8283 194.07 56.9603 197.447C59.0922 200.824 60.2878 204.71 60.424 208.703Z" fill="#487FFF"/>
<path d="M248.601 121.886L235.174 112.601L234.596 112.185C231.042 110.519 221.394 110.998 221.88 107.107C221.984 106.274 222.961 105.645 224.503 105.212L204.991 91.7531C204.268 91.2571 203.38 91.0663 202.519 91.2223C201.657 91.3783 200.892 91.8683 200.389 92.5862L198.31 95.5812C199.35 96.488 200.02 97.7465 200.192 99.1167C200.364 100.487 200.027 101.873 199.245 103.01C198.462 104.146 197.289 104.955 195.95 105.28C194.611 105.606 193.199 105.426 191.983 104.774L189.606 108.228C189.109 108.951 188.918 109.842 189.074 110.707C189.23 111.571 189.719 112.339 190.437 112.843L234.044 142.976C234.766 143.474 235.655 143.665 236.517 143.509C237.38 143.353 238.146 142.862 238.649 142.143L242.449 136.624L249.449 126.493C249.941 125.768 250.128 124.878 249.969 124.015C249.811 123.153 249.319 122.388 248.601 121.886ZM223.327 129.617C221.559 129.617 219.831 129.092 218.361 128.108C216.892 127.124 215.746 125.725 215.07 124.089C214.393 122.452 214.216 120.652 214.561 118.914C214.906 117.177 215.757 115.581 217.007 114.329C218.257 113.076 219.85 112.223 221.583 111.878C223.317 111.532 225.114 111.71 226.747 112.388C228.38 113.065 229.776 114.213 230.758 115.686C231.74 117.159 232.264 118.89 232.264 120.662C232.263 123.037 231.321 125.314 229.645 126.993C227.97 128.672 225.697 129.616 223.327 129.617ZM243.072 128.105L237.876 135.603C237.649 135.928 237.303 136.149 236.914 136.219C236.525 136.289 236.124 136.203 235.798 135.978C235.473 135.752 235.25 135.405 235.179 135.015C235.108 134.625 235.195 134.222 235.419 133.895L240.62 126.398C240.732 126.236 240.875 126.097 241.04 125.991C241.206 125.884 241.391 125.811 241.584 125.776C241.778 125.741 241.976 125.745 242.169 125.787C242.361 125.829 242.543 125.908 242.705 126.021C242.866 126.133 243.004 126.276 243.11 126.442C243.217 126.608 243.289 126.793 243.324 126.987C243.359 127.181 243.356 127.38 243.314 127.573C243.272 127.765 243.193 127.948 243.081 128.11L243.072 128.105Z" fill="#4756DF"/>
<path d="M223.327 129.617C228.263 129.617 232.264 125.607 232.264 120.661C232.264 115.715 228.263 111.705 223.327 111.705C218.391 111.705 214.389 115.715 214.389 120.661C214.389 125.607 218.391 129.617 223.327 129.617Z" fill="#3EC1F3"/>
<path d="M200.256 99.8342C200.256 99.0308 200.084 98.2367 199.752 97.5058C199.419 96.7748 198.933 96.1242 198.327 95.5979L192 104.791C192.813 105.23 193.721 105.459 194.644 105.458C196.132 105.458 197.56 104.865 198.612 103.811C199.665 102.756 200.256 101.326 200.256 99.8342Z" fill="#3EC1F3"/>
<path d="M242.686 126.015C242.359 125.791 241.958 125.705 241.569 125.776C241.179 125.847 240.834 126.069 240.607 126.394L235.407 133.892C235.182 134.219 235.096 134.621 235.167 135.012C235.238 135.402 235.46 135.748 235.785 135.975C236.111 136.199 236.512 136.286 236.901 136.216C237.291 136.145 237.636 135.924 237.864 135.6L243.06 128.102C243.286 127.775 243.374 127.372 243.304 126.981C243.234 126.59 243.012 126.242 242.686 126.015Z" fill="#30242A"/>
<path d="M228.107 138.782C228.107 138.782 224.366 142.947 220.625 139.198C220.625 139.198 216.052 140.448 214.389 136.699C214.389 136.699 210.648 138.365 208.985 134.616C208.877 134.375 206.824 135.516 204.828 132.95C201.919 129.201 200.256 118.787 202.75 118.371C207.032 117.654 208.844 125.702 208.919 125.452C209.854 122.282 211.475 119.621 213.142 119.621C216.052 119.621 216.468 122.536 216.468 122.536C216.468 122.536 218.226 120.183 220.625 120.87C223.535 121.703 222.703 125.452 222.703 125.452C222.703 125.452 225.372 123.678 226.86 126.285C228.523 129.201 225.198 132.95 225.613 137.116L228.107 138.782Z" fill="#EAA58B"/>
<path d="M222.462 124.802C220.687 127.91 217.89 133.933 219.652 138.59" stroke="#A15842" stroke-width="4" stroke-linecap="round" stroke-linejoin="round"/>
<path d="M216.123 121.912C214.996 124.578 212.635 131.043 213.654 136.254" stroke="#A15842" stroke-width="4" stroke-linecap="round" stroke-linejoin="round"/>
<path d="M208.459 124.41C207.909 127.076 207.505 130.629 208.213 133.874" stroke="#A15842" stroke-width="4" stroke-linecap="round" stroke-linejoin="round"/>
<path d="M365.287 62.5531C370.275 60.8869 376.095 53.8056 371.938 47.9739C366.43 40.2427 356.973 50.4732 356.973 50.4732C352.967 47.5454 349.927 43.4834 348.243 38.8098C346.996 39.2264 343.255 39.6429 340.345 38.8098C340.345 38.8098 339.098 42.1422 338.267 47.9739C338.155 48.7737 338.022 49.5443 337.876 50.2857C337.876 50.2857 334.11 50.0566 333.694 51.7228C333.179 53.7806 336.475 55.9925 336.475 55.9925C335.186 60.6453 334.114 64.2235 335.773 68.3848C337.236 72.0546 340.345 76.2993 350.322 75.0496L349.752 79.4234H379.504C379.67 77.678 379.865 75.5995 380.073 73.3543C376.698 72.2171 368.251 68.8264 365.287 62.5531Z" fill="#EAA58B"/>
<path d="M368.612 25.0634C356.557 19.6482 345.333 27.9792 345.333 27.9792C345.333 27.9792 335.082 25.0217 334.525 31.7281C334.11 36.7267 340.345 38.8095 340.345 38.8095C343.255 39.6426 346.996 39.226 348.243 38.8095C349.926 43.483 352.967 47.545 356.973 50.4729C356.973 50.4729 366.43 40.2424 371.938 47.9736C376.095 53.8053 370.275 60.8866 365.287 62.5528C368.251 68.826 376.698 72.2167 380.073 73.3539C380.805 65.4103 381.682 55.3507 381.915 50.4729C382.293 42.5209 381.499 30.8576 368.612 25.0634Z" fill="#4756DF"/>
<path d="M285.889 116.705C285.889 116.705 256.79 108.374 245.567 105.874C238.741 104.354 229.088 103.942 224.495 105.229C222.953 105.645 221.976 106.287 221.872 107.124C221.386 111.015 231.017 110.531 234.588 112.202L248.601 121.887C249.319 122.391 249.809 123.159 249.964 124.023C250.12 124.887 249.929 125.778 249.433 126.502L242.465 136.624C253.187 142.191 264.781 145.879 276.744 147.529C287.772 149.058 301.158 142.91 310.739 137.253L294.664 110.665C289.497 114.197 285.889 116.705 285.889 116.705Z" fill="#EAA58B"/>
<path d="M379.504 79.4241H349.752L349.075 84.6309C349.075 84.6309 334.463 84.3227 324.133 90.8792C316.326 95.832 303.315 104.7 294.664 110.644L310.739 137.254C315.098 134.694 319.293 131.866 323.301 128.785L312.493 160.443H384.409L379.005 84.6309C379.005 84.6309 379.208 82.569 379.504 79.4241Z" fill="#487FFF"/>
<path d="M348.245 85.6721L347.62 90.6707" stroke="#A15842" stroke-width="4" stroke-linecap="round" stroke-linejoin="round"/>
<path d="M328.498 111.498L322.886 128.16" stroke="#A15842" stroke-width="4" stroke-linecap="round" stroke-linejoin="round"/>
<path d="M339.867 59.8457C340.553 60.2623 343.13 60.608 344.174 58.6211" stroke="#A15842" stroke-width="4" stroke-linecap="round" stroke-linejoin="round"/>
<path d="M344.918 50.0559C345.607 50.0559 346.165 49.4965 346.165 48.8063C346.165 48.1161 345.607 47.5566 344.918 47.5566C344.229 47.5566 343.671 48.1161 343.671 48.8063C343.671 49.4965 344.229 50.0559 344.918 50.0559Z" fill="black"/>
<path d="M366.534 52.9719L361.961 55.8878" stroke="#A15842" stroke-width="4" stroke-linecap="round" stroke-linejoin="round"/>
<path d="M355.252 80.248L354.583 85.6507" stroke="#A15842" stroke-width="4" stroke-linecap="round" stroke-linejoin="round"/>
<path d="M361.485 80.248L360.818 85.6507" stroke="#A15842" stroke-width="4" stroke-linecap="round" stroke-linejoin="round"/>
<path d="M367.716 80.248L367.049 85.6507" stroke="#A15842" stroke-width="4" stroke-linecap="round" stroke-linejoin="round"/>
<path d="M350.625 75.7831C352.608 75.4332 355.369 74.7043 357.597 73.1755" stroke="#A15842" stroke-width="4" stroke-linecap="round" stroke-linejoin="round"/>
<path d="M381.591 138.365L382.33 153.777C382.33 153.777 347.291 163.616 335.324 172.614C329.92 176.675 323.268 184.315 320.808 187.518C318.347 190.721 308.22 205.429 312.494 205.846C316.767 206.263 323.356 197.028 323.356 197.028C323.356 197.028 319.145 208.345 320.392 212.094C321.639 215.843 325.505 213.256 325.505 213.256C329.121 217.509 332.331 212.815 332.331 212.815C338.682 217.509 345.142 194.445 345.142 194.445C348.647 192.727 351.775 190.329 354.346 187.389C354.346 187.389 389.938 188.801 403.947 177.104C410.959 171.247 414.422 155.643 414.559 138.365H381.591Z" fill="#EAA58B"/>
<path d="M408.935 98.7928C405.855 89.383 395.633 84.6301 389.397 84.6301H379.005L381.591 138.365H414.559C414.663 124.919 412.755 110.46 408.935 98.7928Z" fill="#487FFF"/>
<path d="M382.509 137.99L381.291 112.331" stroke="#A15842" stroke-width="4" stroke-linecap="round" stroke-linejoin="round"/>
<path d="M382.991 152.715L389.189 151.069" stroke="#A15842" stroke-width="4" stroke-linecap="round" stroke-linejoin="round"/>
<path d="M322.379 197.748C323.684 194.249 325.675 189.063 327.251 185.643" stroke="#A15842" stroke-width="4" stroke-linecap="round" stroke-linejoin="round"/>
<path d="M333.071 188.56C328.614 198.178 326.004 208.971 325.172 212.87" stroke="#A15842" stroke-width="4" stroke-linecap="round" stroke-linejoin="round"/>
<path d="M339.306 191.891C336.454 198.469 333.823 207.237 332.393 212.344" stroke="#A15842" stroke-width="4" stroke-linecap="round" stroke-linejoin="round"/>
</svg>
